%TF.GenerationSoftware,KiCad,Pcbnew,9.0.9-9.0.9~ubuntu24.04.1*%
%TF.CreationDate,2026-07-31T12:10:34-06:00*%
%TF.ProjectId,HORNO_PCB,484f524e-4f5f-4504-9342-2e6b69636164,rev?*%
%TF.SameCoordinates,Original*%
%TF.FileFunction,Soldermask,Top*%
%TF.FilePolarity,Negative*%
%FSLAX46Y46*%
G04 Gerber Fmt 4.6, Leading zero omitted, Abs format (unit mm)*
G04 Created by KiCad (PCBNEW 9.0.9-9.0.9~ubuntu24.04.1) date 2026-07-31 12:10:34*
%MOMM*%
%LPD*%
G01*
G04 APERTURE LIST*
G04 Aperture macros list*
%AMRoundRect*
0 Rectangle with rounded corners*
0 $1 Rounding radius*
0 $2 $3 $4 $5 $6 $7 $8 $9 X,Y pos of 4 corners*
0 Add a 4 corners polygon primitive as box body*
4,1,4,$2,$3,$4,$5,$6,$7,$8,$9,$2,$3,0*
0 Add four circle primitives for the rounded corners*
1,1,$1+$1,$2,$3*
1,1,$1+$1,$4,$5*
1,1,$1+$1,$6,$7*
1,1,$1+$1,$8,$9*
0 Add four rect primitives between the rounded corners*
20,1,$1+$1,$2,$3,$4,$5,0*
20,1,$1+$1,$4,$5,$6,$7,0*
20,1,$1+$1,$6,$7,$8,$9,0*
20,1,$1+$1,$8,$9,$2,$3,0*%
G04 Aperture macros list end*
%ADD10R,1.800000X1.800000*%
%ADD11C,1.800000*%
%ADD12C,3.000000*%
%ADD13RoundRect,0.102000X-0.565000X-0.565000X0.565000X-0.565000X0.565000X0.565000X-0.565000X0.565000X0*%
%ADD14C,1.334000*%
%ADD15RoundRect,0.250000X1.050000X-1.050000X1.050000X1.050000X-1.050000X1.050000X-1.050000X-1.050000X0*%
%ADD16C,2.600000*%
%ADD17C,1.600000*%
%ADD18C,2.400000*%
%ADD19R,2.000000X2.000000*%
%ADD20C,2.000000*%
%ADD21RoundRect,0.102000X-0.600000X-0.565000X0.600000X-0.565000X0.600000X0.565000X-0.600000X0.565000X0*%
%ADD22C,1.404000*%
%ADD23RoundRect,0.250000X1.050000X1.050000X-1.050000X1.050000X-1.050000X-1.050000X1.050000X-1.050000X0*%
%ADD24R,1.700000X1.700000*%
%ADD25C,1.700000*%
%ADD26C,7.000000*%
%ADD27RoundRect,0.250000X-0.550000X-0.550000X0.550000X-0.550000X0.550000X0.550000X-0.550000X0.550000X0*%
%ADD28R,2.500000X4.500000*%
%ADD29O,2.500000X4.500000*%
%ADD30C,2.700000*%
%ADD31RoundRect,0.250000X-0.950000X-0.550000X0.950000X-0.550000X0.950000X0.550000X-0.950000X0.550000X0*%
%ADD32O,2.400000X1.600000*%
%ADD33R,1.300000X1.300000*%
%ADD34C,1.300000*%
G04 APERTURE END LIST*
D10*
%TO.C,D3*%
X356050000Y-220200000D03*
D11*
X353510000Y-220200000D03*
%TD*%
D12*
%TO.C,J20*%
X406400000Y-355500000D03*
%TD*%
D13*
%TO.C,U18*%
X462900000Y-365120000D03*
D14*
X462900000Y-367660000D03*
X462900000Y-370200000D03*
X462900000Y-372740000D03*
X470840000Y-372740000D03*
X470840000Y-370200000D03*
X470840000Y-367660000D03*
X470840000Y-365120000D03*
%TD*%
D15*
%TO.C,J0_18*%
X480300000Y-315900000D03*
D16*
X480300000Y-310900000D03*
X480300000Y-305900000D03*
%TD*%
D12*
%TO.C,J16*%
X332700000Y-360900000D03*
%TD*%
%TO.C,J18*%
X369100000Y-369900000D03*
%TD*%
D17*
%TO.C,R19*%
X452060000Y-303860000D03*
X441900000Y-303860000D03*
%TD*%
D18*
%TO.C,K2*%
X466600000Y-246800000D03*
X461560000Y-246800000D03*
X471640000Y-246800000D03*
D19*
X446440000Y-246800000D03*
D20*
X450220000Y-246800000D03*
%TD*%
D17*
%TO.C,R23*%
X463080000Y-360940000D03*
X463080000Y-350780000D03*
%TD*%
D21*
%TO.C,U10*%
X343460000Y-267690000D03*
D22*
X343460000Y-270230000D03*
X343460000Y-272770000D03*
X343460000Y-275310000D03*
X351400000Y-275310000D03*
X351400000Y-272770000D03*
X351400000Y-270230000D03*
X351400000Y-267690000D03*
%TD*%
D17*
%TO.C,R37*%
X371300000Y-277200000D03*
X371300000Y-267040000D03*
%TD*%
D10*
%TO.C,D11*%
X446860000Y-217600000D03*
D11*
X449400000Y-217600000D03*
%TD*%
D23*
%TO.C,J0_1*%
X369300000Y-178100000D03*
D16*
X364300000Y-178100000D03*
X359300000Y-178100000D03*
%TD*%
D24*
%TO.C,J27*%
X411700000Y-305300000D03*
D25*
X411700000Y-302760000D03*
X411700000Y-300220000D03*
X411700000Y-297680000D03*
X411700000Y-295140000D03*
X411700000Y-292600000D03*
X411700000Y-290060000D03*
X411700000Y-287520000D03*
X411700000Y-284980000D03*
X411700000Y-282440000D03*
X411700000Y-279900000D03*
X411700000Y-277360000D03*
X411700000Y-274820000D03*
X411700000Y-272280000D03*
X411700000Y-269740000D03*
X411700000Y-267200000D03*
X411700000Y-264660000D03*
X411700000Y-262120000D03*
X411700000Y-259580000D03*
X411700000Y-257040000D03*
%TD*%
D26*
%TO.C,MH2*%
X493000000Y-378000000D03*
%TD*%
D17*
%TO.C,R3*%
X370000000Y-219900000D03*
X380160000Y-219900000D03*
%TD*%
D13*
%TO.C,U17*%
X462900000Y-337320000D03*
D14*
X462900000Y-339860000D03*
X462900000Y-342400000D03*
X462900000Y-344940000D03*
X470840000Y-344940000D03*
X470840000Y-342400000D03*
X470840000Y-339860000D03*
X470840000Y-337320000D03*
%TD*%
D17*
%TO.C,C7*%
X376400000Y-192900000D03*
X381400000Y-192900000D03*
%TD*%
D15*
%TO.C,J0_4*%
X480300000Y-276600000D03*
D16*
X480300000Y-271600000D03*
X480300000Y-266600000D03*
%TD*%
D12*
%TO.C,J22*%
X443000000Y-369300000D03*
%TD*%
D17*
%TO.C,R24*%
X477440000Y-359640000D03*
X467280000Y-359640000D03*
%TD*%
D26*
%TO.C,MH4*%
X308000000Y-174000000D03*
%TD*%
D10*
%TO.C,D10*%
X446860000Y-199600000D03*
D11*
X449400000Y-199600000D03*
%TD*%
D21*
%TO.C,U9*%
X343460000Y-252690000D03*
D22*
X343460000Y-255230000D03*
X343460000Y-257770000D03*
X343460000Y-260310000D03*
X351400000Y-260310000D03*
X351400000Y-257770000D03*
X351400000Y-255230000D03*
X351400000Y-252690000D03*
%TD*%
D12*
%TO.C,J9*%
X332700000Y-317900000D03*
%TD*%
D15*
%TO.C,J0_10*%
X480300000Y-182600000D03*
D16*
X480300000Y-177600000D03*
X480300000Y-172600000D03*
%TD*%
D12*
%TO.C,J17*%
X311700000Y-360900000D03*
%TD*%
%TO.C,J11*%
X348100000Y-332100000D03*
%TD*%
D27*
%TO.C,U1*%
X359380000Y-201500000D03*
D17*
X359380000Y-204040000D03*
X367000000Y-204040000D03*
X367000000Y-201500000D03*
%TD*%
D28*
%TO.C,Q7*%
X451700000Y-296520000D03*
D29*
X457150000Y-296520000D03*
X462600000Y-296520000D03*
%TD*%
D26*
%TO.C,MH1*%
X308000000Y-378000000D03*
%TD*%
D15*
%TO.C,J7*%
X326000000Y-301000000D03*
D16*
X326000000Y-296000000D03*
X326000000Y-291000000D03*
%TD*%
D12*
%TO.C,J21*%
X385400000Y-355500000D03*
%TD*%
D10*
%TO.C,D4*%
X356050000Y-228900000D03*
D11*
X353510000Y-228900000D03*
%TD*%
D17*
%TO.C,C9*%
X456040000Y-364740000D03*
X456040000Y-359740000D03*
%TD*%
%TO.C,R48*%
X427600000Y-202700000D03*
X417440000Y-202700000D03*
%TD*%
D12*
%TO.C,J8*%
X311700000Y-317900000D03*
%TD*%
%TO.C,J19*%
X348100000Y-369900000D03*
%TD*%
D30*
%TO.C,F1*%
X359350000Y-301000000D03*
D12*
X370600000Y-301000000D03*
X348100000Y-301000000D03*
%TD*%
D15*
%TO.C,J0_9*%
X480300000Y-201400000D03*
D16*
X480300000Y-196400000D03*
X480300000Y-191400000D03*
%TD*%
D17*
%TO.C,R28*%
X335000000Y-203000000D03*
X350240000Y-203000000D03*
%TD*%
D31*
%TO.C,U25*%
X432100000Y-207080000D03*
D32*
X432100000Y-209620000D03*
X432100000Y-212160000D03*
X432100000Y-214700000D03*
X432100000Y-217240000D03*
X432100000Y-219780000D03*
X432100000Y-222320000D03*
X432100000Y-224860000D03*
X432100000Y-227400000D03*
X439720000Y-227400000D03*
X439720000Y-224860000D03*
X439720000Y-222320000D03*
X439720000Y-219780000D03*
X439720000Y-217240000D03*
X439720000Y-214700000D03*
X439720000Y-212160000D03*
X439720000Y-209620000D03*
X439720000Y-207080000D03*
%TD*%
D17*
%TO.C,R14*%
X365000000Y-253500000D03*
X354840000Y-253500000D03*
%TD*%
%TO.C,R12*%
X335000000Y-228900000D03*
X350240000Y-228900000D03*
%TD*%
D12*
%TO.C,J23*%
X422000000Y-369300000D03*
%TD*%
D17*
%TO.C,R25*%
X452100000Y-288280000D03*
X441940000Y-288280000D03*
%TD*%
D15*
%TO.C,J0_8*%
X480300000Y-220200000D03*
D16*
X480300000Y-215200000D03*
X480300000Y-210200000D03*
%TD*%
D17*
%TO.C,R26*%
X424300000Y-299400000D03*
X424300000Y-289240000D03*
%TD*%
D15*
%TO.C,J0_12*%
X326000000Y-228900000D03*
D16*
X326000000Y-223900000D03*
X326000000Y-218900000D03*
%TD*%
D18*
%TO.C,R6*%
X470200000Y-283740000D03*
X470200000Y-298980000D03*
%TD*%
D33*
%TO.C,Q1*%
X363300000Y-260500000D03*
D34*
X364570000Y-259230000D03*
X365840000Y-260500000D03*
%TD*%
D27*
%TO.C,U15*%
X430480000Y-305280000D03*
D17*
X430480000Y-307820000D03*
X430480000Y-310360000D03*
X430480000Y-312900000D03*
X438100000Y-312900000D03*
X438100000Y-310360000D03*
X438100000Y-307820000D03*
X438100000Y-305280000D03*
%TD*%
%TO.C,R46*%
X427600000Y-208800000D03*
X417440000Y-208800000D03*
%TD*%
D18*
%TO.C,K8*%
X466600000Y-209200000D03*
X461560000Y-209200000D03*
X471640000Y-209200000D03*
D19*
X446440000Y-209200000D03*
D20*
X450220000Y-209200000D03*
%TD*%
D23*
%TO.C,J0_3*%
X349100000Y-178100000D03*
D16*
X344100000Y-178100000D03*
X339100000Y-178100000D03*
%TD*%
D24*
%TO.C,J25*%
X411700000Y-246600000D03*
D25*
X411700000Y-244060000D03*
X411700000Y-241520000D03*
X411700000Y-238980000D03*
X411700000Y-236440000D03*
X411700000Y-233900000D03*
X411700000Y-231360000D03*
X411700000Y-228820000D03*
X411700000Y-226280000D03*
X411700000Y-223740000D03*
X411700000Y-221200000D03*
X411700000Y-218660000D03*
X411700000Y-216120000D03*
X411700000Y-213580000D03*
X411700000Y-211040000D03*
X411700000Y-208500000D03*
X411700000Y-205960000D03*
X411700000Y-203420000D03*
X411700000Y-200880000D03*
X411700000Y-198340000D03*
%TD*%
D26*
%TO.C,MH3*%
X493000000Y-174000000D03*
%TD*%
D17*
%TO.C,R44*%
X427600000Y-214900000D03*
X417440000Y-214900000D03*
%TD*%
D18*
%TO.C,K6*%
X466600000Y-171600000D03*
X461560000Y-171600000D03*
X471640000Y-171600000D03*
D19*
X446440000Y-171600000D03*
D20*
X450220000Y-171600000D03*
%TD*%
D12*
%TO.C,J1*%
X364000000Y-187500000D03*
%TD*%
D15*
%TO.C,J0_5*%
X326000000Y-267440000D03*
D16*
X326000000Y-262440000D03*
X326000000Y-257440000D03*
%TD*%
D15*
%TO.C,J0_6*%
X480300000Y-257800000D03*
D16*
X480300000Y-252800000D03*
X480300000Y-247800000D03*
%TD*%
D12*
%TO.C,J12*%
X406400000Y-318300000D03*
%TD*%
D24*
%TO.C,J24*%
X386300000Y-198300000D03*
D25*
X386300000Y-200840000D03*
X386300000Y-203380000D03*
X386300000Y-205920000D03*
X386300000Y-208460000D03*
X386300000Y-211000000D03*
X386300000Y-213540000D03*
X386300000Y-216080000D03*
X386300000Y-218620000D03*
X386300000Y-221160000D03*
X386300000Y-223700000D03*
X386300000Y-226240000D03*
X386300000Y-228780000D03*
X386300000Y-231320000D03*
X386300000Y-233860000D03*
X386300000Y-236400000D03*
X386300000Y-238940000D03*
X386300000Y-241480000D03*
X386300000Y-244020000D03*
X386300000Y-246560000D03*
%TD*%
D17*
%TO.C,C10*%
X421100000Y-192900000D03*
X416100000Y-192900000D03*
%TD*%
%TO.C,R11*%
X427600000Y-221000000D03*
X417440000Y-221000000D03*
%TD*%
%TO.C,R10*%
X427600000Y-227100000D03*
X417440000Y-227100000D03*
%TD*%
D28*
%TO.C,Q6*%
X451900000Y-312100000D03*
D29*
X457350000Y-312100000D03*
X462800000Y-312100000D03*
%TD*%
D15*
%TO.C,J0_15*%
X326000000Y-245700000D03*
D16*
X326000000Y-240700000D03*
X326000000Y-235700000D03*
%TD*%
D17*
%TO.C,R1*%
X370000000Y-202900000D03*
X380160000Y-202900000D03*
%TD*%
D18*
%TO.C,R5*%
X470200000Y-302340000D03*
X470200000Y-317580000D03*
%TD*%
D10*
%TO.C,D12*%
X446860000Y-236400000D03*
D11*
X449400000Y-236400000D03*
%TD*%
D27*
%TO.C,U2*%
X359380000Y-210100000D03*
D17*
X359380000Y-212640000D03*
X367000000Y-212640000D03*
X367000000Y-210100000D03*
%TD*%
%TO.C,C5*%
X338000000Y-268500000D03*
X338000000Y-273500000D03*
%TD*%
D10*
%TO.C,D1*%
X356050000Y-203000000D03*
D11*
X353510000Y-203000000D03*
%TD*%
D12*
%TO.C,J13*%
X385400000Y-318300000D03*
%TD*%
D15*
%TO.C,J0_2*%
X326000000Y-195300000D03*
D16*
X326000000Y-190300000D03*
X326000000Y-185300000D03*
%TD*%
D15*
%TO.C,J0_13*%
X480300000Y-351000000D03*
D16*
X480300000Y-346000000D03*
X480300000Y-341000000D03*
%TD*%
D17*
%TO.C,R22*%
X477440000Y-331840000D03*
X467280000Y-331840000D03*
%TD*%
D27*
%TO.C,U4*%
X359380000Y-227400000D03*
D17*
X359380000Y-229940000D03*
X367000000Y-229940000D03*
X367000000Y-227400000D03*
%TD*%
D15*
%TO.C,J0_7*%
X480300000Y-239000000D03*
D16*
X480300000Y-234000000D03*
X480300000Y-229000000D03*
%TD*%
D15*
%TO.C,J0_14*%
X480300000Y-297300000D03*
D16*
X480300000Y-292300000D03*
X480300000Y-287300000D03*
%TD*%
D17*
%TO.C,R21*%
X463080000Y-333140000D03*
X463080000Y-322980000D03*
%TD*%
%TO.C,R38*%
X371300000Y-251880000D03*
X371300000Y-262040000D03*
%TD*%
D10*
%TO.C,D2*%
X356050000Y-211600000D03*
D11*
X353510000Y-211600000D03*
%TD*%
D24*
%TO.C,J26*%
X386300000Y-257200000D03*
D25*
X386300000Y-259740000D03*
X386300000Y-262280000D03*
X386300000Y-264820000D03*
X386300000Y-267360000D03*
X386300000Y-269900000D03*
X386300000Y-272440000D03*
X386300000Y-274980000D03*
X386300000Y-277520000D03*
X386300000Y-280060000D03*
X386300000Y-282600000D03*
X386300000Y-285140000D03*
X386300000Y-287680000D03*
X386300000Y-290220000D03*
X386300000Y-292760000D03*
X386300000Y-295300000D03*
X386300000Y-297840000D03*
X386300000Y-300380000D03*
X386300000Y-302920000D03*
X386300000Y-305460000D03*
%TD*%
D17*
%TO.C,R2*%
X370000000Y-211300000D03*
X380160000Y-211300000D03*
%TD*%
%TO.C,C6*%
X338000000Y-253500000D03*
X338000000Y-258500000D03*
%TD*%
D12*
%TO.C,J14*%
X443000000Y-333300000D03*
%TD*%
D10*
%TO.C,D13*%
X446860000Y-254500000D03*
D11*
X449400000Y-254500000D03*
%TD*%
D17*
%TO.C,C8*%
X456040000Y-336940000D03*
X456040000Y-331940000D03*
%TD*%
%TO.C,R8*%
X335000000Y-220200000D03*
X350240000Y-220200000D03*
%TD*%
D18*
%TO.C,K7*%
X466600000Y-190400000D03*
X461560000Y-190400000D03*
X471640000Y-190400000D03*
D19*
X446440000Y-190400000D03*
D20*
X450220000Y-190400000D03*
%TD*%
D12*
%TO.C,J15*%
X422000000Y-333300000D03*
%TD*%
D10*
%TO.C,D9*%
X446860000Y-180000000D03*
D11*
X449400000Y-180000000D03*
%TD*%
D33*
%TO.C,Q2*%
X363300000Y-275500000D03*
D34*
X364570000Y-274230000D03*
X365840000Y-275500000D03*
%TD*%
D17*
%TO.C,R7*%
X335000000Y-211600000D03*
X350240000Y-211600000D03*
%TD*%
D27*
%TO.C,U3*%
X359380000Y-218700000D03*
D17*
X359380000Y-221240000D03*
X367000000Y-221240000D03*
X367000000Y-218700000D03*
%TD*%
%TO.C,R4*%
X370000000Y-228600000D03*
X380160000Y-228600000D03*
%TD*%
%TO.C,R9*%
X427600000Y-233200000D03*
X417440000Y-233200000D03*
%TD*%
D27*
%TO.C,U19*%
X429980000Y-289700000D03*
D17*
X429980000Y-292240000D03*
X429980000Y-294780000D03*
X429980000Y-297320000D03*
X437600000Y-297320000D03*
X437600000Y-294780000D03*
X437600000Y-292240000D03*
X437600000Y-289700000D03*
%TD*%
%TO.C,R15*%
X365000000Y-268500000D03*
X354840000Y-268500000D03*
%TD*%
D18*
%TO.C,K9*%
X466600000Y-228000000D03*
X461560000Y-228000000D03*
X471640000Y-228000000D03*
D19*
X446440000Y-228000000D03*
D20*
X450220000Y-228000000D03*
%TD*%
D10*
%TO.C,D14*%
X446860000Y-273600000D03*
D11*
X449400000Y-273600000D03*
%TD*%
D18*
%TO.C,K1*%
X466600000Y-265600000D03*
X461560000Y-265600000D03*
X471640000Y-265600000D03*
D19*
X446440000Y-265600000D03*
D20*
X450220000Y-265600000D03*
%TD*%
D12*
%TO.C,J10*%
X369100000Y-332100000D03*
%TD*%
D15*
%TO.C,J0_11*%
X326000000Y-212100000D03*
D16*
X326000000Y-207100000D03*
X326000000Y-202100000D03*
%TD*%
D17*
%TO.C,R20*%
X424300000Y-314980000D03*
X424300000Y-304820000D03*
%TD*%
M02*
