M48
; DRILL file {KiCad 9.0.9-9.0.9~ubuntu24.04.1} date 2026-09-06T18:34:41-0600
; FORMAT={-:-/ absolute / metric / decimal}
; #@! TF.CreationDate,2026-09-06T18:34:41-06:00
; #@! TF.GenerationSoftware,Kicad,Pcbnew,9.0.9-9.0.9~ubuntu24.04.1
; #@! TF.FileFunction,Plated,1,2,PTH
FMAT,2
METRIC
; #@! TA.AperFunction,Plated,PTH,ViaDrill
T1C0.300
; #@! TA.AperFunction,Plated,PTH,ComponentDrill
T2C0.750
; #@! TA.AperFunction,Plated,PTH,ComponentDrill
T3C0.780
; #@! TA.AperFunction,Plated,PTH,ComponentDrill
T4C0.800
; #@! TA.AperFunction,Plated,PTH,ComponentDrill
T5C0.900
; #@! TA.AperFunction,Plated,PTH,ComponentDrill
T6C1.000
; #@! TA.AperFunction,Plated,PTH,ComponentDrill
T7C1.200
; #@! TA.AperFunction,Plated,PTH,ComponentDrill
T8C1.300
; #@! TA.AperFunction,Plated,PTH,ComponentDrill
T9C1.500
; #@! TA.AperFunction,Plated,PTH,ComponentDrill
T10C3.500
%
G90
G05
T1
X321.822Y-266.963
X350.412Y-195.292
X374.078Y-231.161
X378.967Y-213.348
X379.088Y-218.49
X379.995Y-261.052
X379.995Y-329.802
X381.169Y-216.381
X381.301Y-217.196
X382.238Y-275.031
X382.389Y-287.504
X382.626Y-213.227
X382.67Y-219.248
X384.001Y-289.253
X384.08Y-225.183
X385.912Y-186.325
X388.87Y-305.889
X391.828Y-290.943
X409.194Y-217.58
X409.474Y-273.009
X423.725Y-298.955
X433.602Y-255.074
X439.746Y-294.159
X442.41Y-231.161
X446.1Y-231.626
X468.396Y-320.204
X468.744Y-354.634
X471.702Y-354.634
T2
X363.3Y-260.5
X363.3Y-275.5
X364.57Y-259.23
X364.57Y-274.23
X365.84Y-260.5
X365.84Y-275.5
T3
X343.46Y-252.69
X343.46Y-255.23
X343.46Y-257.77
X343.46Y-260.31
X343.46Y-267.69
X343.46Y-270.23
X343.46Y-272.77
X343.46Y-275.31
X351.4Y-252.69
X351.4Y-255.23
X351.4Y-257.77
X351.4Y-260.31
X351.4Y-267.69
X351.4Y-270.23
X351.4Y-272.77
X351.4Y-275.31
X462.86Y-338.38
X462.86Y-340.92
X462.86Y-343.46
X462.86Y-346.0
X462.9Y-365.12
X462.9Y-367.66
X462.9Y-370.2
X462.9Y-372.74
X470.8Y-338.38
X470.8Y-340.92
X470.8Y-343.46
X470.8Y-346.0
X470.84Y-365.12
X470.84Y-367.66
X470.84Y-370.2
X470.84Y-372.74
T4
X335.0Y-203.0
X335.0Y-211.6
X335.0Y-220.2
X335.0Y-228.9
X338.0Y-253.5
X338.0Y-258.5
X338.0Y-268.5
X338.0Y-273.5
X350.24Y-203.0
X350.24Y-211.6
X350.24Y-220.2
X350.24Y-228.9
X354.84Y-253.5
X354.84Y-268.5
X359.38Y-201.5
X359.38Y-204.04
X359.38Y-210.1
X359.38Y-212.64
X359.38Y-218.7
X359.38Y-221.24
X359.38Y-227.4
X359.38Y-229.94
X365.0Y-253.5
X365.0Y-268.5
X367.0Y-201.5
X367.0Y-204.04
X367.0Y-210.1
X367.0Y-212.64
X367.0Y-218.7
X367.0Y-221.24
X367.0Y-227.4
X367.0Y-229.94
X370.0Y-202.9
X370.0Y-211.3
X370.0Y-219.9
X370.0Y-228.6
X371.3Y-251.88
X371.3Y-262.04
X371.3Y-267.04
X371.3Y-277.2
X376.4Y-192.9
X380.16Y-202.9
X380.16Y-211.3
X380.16Y-219.9
X380.16Y-228.6
X381.4Y-192.9
X416.1Y-192.9
X417.44Y-202.7
X417.44Y-208.8
X417.44Y-214.9
X417.44Y-221.0
X417.44Y-227.1
X417.44Y-233.2
X421.1Y-192.9
X424.3Y-291.34
X424.3Y-301.5
X424.3Y-312.34
X424.3Y-322.5
X427.6Y-202.7
X427.6Y-208.8
X427.6Y-214.9
X427.6Y-221.0
X427.6Y-227.1
X427.6Y-233.2
X429.98Y-292.0
X429.98Y-294.54
X429.98Y-297.08
X429.98Y-299.62
X430.48Y-313.0
X430.48Y-315.54
X430.48Y-318.08
X430.48Y-320.62
X432.1Y-207.08
X432.1Y-209.62
X432.1Y-212.16
X432.1Y-214.7
X432.1Y-217.24
X432.1Y-219.78
X432.1Y-222.32
X432.1Y-224.86
X432.1Y-227.4
X437.6Y-292.0
X437.6Y-294.54
X437.6Y-297.08
X437.6Y-299.62
X438.1Y-313.0
X438.1Y-315.54
X438.1Y-318.08
X438.1Y-320.62
X439.72Y-207.08
X439.72Y-209.62
X439.72Y-212.16
X439.72Y-214.7
X439.72Y-217.24
X439.72Y-219.78
X439.72Y-222.32
X439.72Y-224.86
X439.72Y-227.4
X441.9Y-311.0
X441.94Y-290.0
X444.84Y-181.8
X444.84Y-200.3
X444.84Y-219.0
X444.84Y-238.2
X444.84Y-256.4
X444.84Y-275.4
X452.06Y-311.0
X452.1Y-290.0
X455.0Y-181.8
X455.0Y-200.3
X455.0Y-219.0
X455.0Y-238.2
X455.0Y-256.4
X455.0Y-275.4
X455.7Y-339.8
X455.7Y-344.8
X456.04Y-366.54
X456.04Y-371.54
X458.1Y-326.32
X458.1Y-336.48
X458.1Y-353.06
X458.1Y-363.22
X467.28Y-333.0
X467.28Y-359.64
X477.44Y-333.0
X477.44Y-359.64
T5
X353.51Y-203.0
X353.51Y-211.6
X353.51Y-220.2
X353.51Y-228.9
X356.05Y-203.0
X356.05Y-211.6
X356.05Y-220.2
X356.05Y-228.9
X462.73Y-200.4
X462.86Y-181.9
X463.46Y-219.0
X463.46Y-238.0
X463.46Y-256.7
X463.46Y-275.5
X465.27Y-200.4
X465.4Y-181.9
X466.0Y-219.0
X466.0Y-238.0
X466.0Y-256.7
X466.0Y-275.5
T6
X314.7Y-320.0
X314.7Y-360.0
X332.7Y-320.0
X332.7Y-360.0
X351.2Y-333.0
X351.2Y-373.0
X369.2Y-333.0
X369.2Y-373.0
X386.3Y-198.3
X386.3Y-200.84
X386.3Y-203.38
X386.3Y-205.92
X386.3Y-208.46
X386.3Y-211.0
X386.3Y-213.54
X386.3Y-216.08
X386.3Y-218.62
X386.3Y-221.16
X386.3Y-223.7
X386.3Y-226.24
X386.3Y-228.78
X386.3Y-231.32
X386.3Y-233.86
X386.3Y-236.4
X386.3Y-238.94
X386.3Y-241.48
X386.3Y-244.02
X386.3Y-246.56
X386.3Y-257.2
X386.3Y-259.74
X386.3Y-262.28
X386.3Y-264.82
X386.3Y-267.36
X386.3Y-269.9
X386.3Y-272.44
X386.3Y-274.98
X386.3Y-277.52
X386.3Y-280.06
X386.3Y-282.6
X386.3Y-285.14
X386.3Y-287.68
X386.3Y-290.22
X386.3Y-292.76
X386.3Y-295.3
X386.3Y-297.84
X386.3Y-300.38
X386.3Y-302.92
X386.3Y-305.46
X388.6Y-320.0
X388.6Y-360.0
X406.6Y-320.0
X406.6Y-360.0
X411.7Y-198.34
X411.7Y-200.88
X411.7Y-203.42
X411.7Y-205.96
X411.7Y-208.5
X411.7Y-211.04
X411.7Y-213.58
X411.7Y-216.12
X411.7Y-218.66
X411.7Y-221.2
X411.7Y-223.74
X411.7Y-226.28
X411.7Y-228.82
X411.7Y-231.36
X411.7Y-233.9
X411.7Y-236.44
X411.7Y-238.98
X411.7Y-241.52
X411.7Y-244.06
X411.7Y-246.6
X411.7Y-257.04
X411.7Y-259.58
X411.7Y-262.12
X411.7Y-264.66
X411.7Y-267.2
X411.7Y-269.74
X411.7Y-272.28
X411.7Y-274.82
X411.7Y-277.36
X411.7Y-279.9
X411.7Y-282.44
X411.7Y-284.98
X411.7Y-287.52
X411.7Y-290.06
X411.7Y-292.6
X411.7Y-295.14
X411.7Y-297.68
X411.7Y-300.22
X411.7Y-302.76
X411.7Y-305.3
X427.5Y-333.0
X427.5Y-373.0
X445.5Y-333.0
X445.5Y-373.0
X446.44Y-190.4
X446.44Y-209.2
X446.44Y-228.0
X446.44Y-246.8
X446.44Y-265.6
X450.22Y-190.4
X450.22Y-209.2
X450.22Y-228.0
X450.22Y-246.8
X450.22Y-265.6
T7
X470.2Y-285.5
X470.2Y-300.74
X470.2Y-306.5
X470.2Y-321.74
T8
X326.0Y-185.3
X326.0Y-190.3
X326.0Y-195.3
X326.0Y-202.1
X326.0Y-207.1
X326.0Y-212.1
X326.0Y-218.9
X326.0Y-223.9
X326.0Y-228.9
X326.0Y-235.7
X326.0Y-240.7
X326.0Y-245.7
X326.0Y-257.44
X326.0Y-262.44
X326.0Y-267.44
X326.0Y-291.0
X326.0Y-296.0
X326.0Y-301.0
X339.1Y-178.1
X344.1Y-178.1
X348.1Y-301.0
X349.1Y-178.1
X359.3Y-178.1
X364.3Y-178.1
X369.3Y-178.1
X370.6Y-301.0
X429.3Y-273.3
X429.3Y-278.3
X429.3Y-283.3
X429.5Y-239.8
X429.5Y-244.8
X429.5Y-249.8
X429.5Y-256.6
X429.5Y-261.6
X429.5Y-266.6
X461.56Y-190.4
X461.56Y-209.2
X461.56Y-228.0
X461.56Y-246.8
X461.56Y-265.6
X466.6Y-190.4
X466.6Y-209.2
X466.6Y-228.0
X466.6Y-246.8
X466.6Y-265.6
X471.64Y-190.4
X471.64Y-209.2
X471.64Y-228.0
X471.64Y-246.8
X471.64Y-265.6
X480.3Y-172.6
X480.3Y-177.6
X480.3Y-182.6
X480.3Y-191.4
X480.3Y-196.4
X480.3Y-201.4
X480.3Y-210.2
X480.3Y-215.2
X480.3Y-220.2
X480.3Y-229.0
X480.3Y-234.0
X480.3Y-239.0
X480.3Y-247.8
X480.3Y-252.8
X480.3Y-257.8
X480.3Y-266.6
X480.3Y-271.6
X480.3Y-276.6
X480.3Y-287.0
X480.3Y-292.0
X480.3Y-297.0
X480.3Y-308.0
X480.3Y-313.0
X480.3Y-318.0
X480.3Y-342.0
X480.3Y-347.0
X480.3Y-352.0
T9
X364.0Y-187.5
X451.7Y-297.0
X451.9Y-318.0
X457.15Y-297.0
X457.35Y-318.0
X462.6Y-297.0
X462.8Y-318.0
T10
X308.0Y-174.0
X308.0Y-378.0
X493.0Y-174.0
X493.0Y-378.0
M30
