M48
; DRILL file {KiCad 9.0.9-9.0.9~ubuntu24.04.1} date 2026-07-31T12:10:45-0600
; FORMAT={-:-/ absolute / metric / decimal}
; #@! TF.CreationDate,2026-07-31T12:10:45-06:00
; #@! TF.GenerationSoftware,Kicad,Pcbnew,9.0.9-9.0.9~ubuntu24.04.1
; #@! TF.FileFunction,Plated,1,2,PTH
FMAT,2
METRIC
; #@! TA.AperFunction,Plated,PTH,ViaDrill
T1C0.300
; #@! TA.AperFunction,Plated,PTH,ComponentDrill
T2C0.750
; #@! TA.AperFunction,Plated,PTH,ComponentDrill
T3C0.780
; #@! TA.AperFunction,Plated,PTH,ComponentDrill
T4C0.800
; #@! TA.AperFunction,Plated,PTH,ComponentDrill
T5C0.900
; #@! TA.AperFunction,Plated,PTH,ComponentDrill
T6C1.000
; #@! TA.AperFunction,Plated,PTH,ComponentDrill
T7C1.200
; #@! TA.AperFunction,Plated,PTH,ComponentDrill
T8C1.300
; #@! TA.AperFunction,Plated,PTH,ComponentDrill
T9C1.500
; #@! TA.AperFunction,Plated,PTH,ComponentDrill
T10C3.500
%
G90
G05
T1
X317.871Y-270.02
X353.953Y-256.182
X374.078Y-231.161
X374.078Y-329.802
X379.995Y-275.998
X383.135Y-278.113
X383.186Y-312.251
X384.883Y-218.693
X385.013Y-226.943
X385.912Y-180.347
X388.13Y-289.05
X388.77Y-293.932
X388.98Y-185.174
X389.341Y-287.9
X389.36Y-207.248
X389.36Y-216.216
X389.36Y-299.911
X389.418Y-275.268
X394.786Y-287.954
X406.258Y-273.37
X409.355Y-198.629
X424.37Y-275.998
X433.244Y-353.61
X434.567Y-231.161
X436.021Y-228.172
X436.203Y-201.27
X439.531Y-292.6
X445.153Y-335.844
X466.059Y-314.58
T2
X363.3Y-260.5
X363.3Y-275.5
X364.57Y-259.23
X364.57Y-274.23
X365.84Y-260.5
X365.84Y-275.5
T3
X343.46Y-252.69
X343.46Y-255.23
X343.46Y-257.77
X343.46Y-260.31
X343.46Y-267.69
X343.46Y-270.23
X343.46Y-272.77
X343.46Y-275.31
X351.4Y-252.69
X351.4Y-255.23
X351.4Y-257.77
X351.4Y-260.31
X351.4Y-267.69
X351.4Y-270.23
X351.4Y-272.77
X351.4Y-275.31
X462.9Y-337.32
X462.9Y-339.86
X462.9Y-342.4
X462.9Y-344.94
X462.9Y-365.12
X462.9Y-367.66
X462.9Y-370.2
X462.9Y-372.74
X470.84Y-337.32
X470.84Y-339.86
X470.84Y-342.4
X470.84Y-344.94
X470.84Y-365.12
X470.84Y-367.66
X470.84Y-370.2
X470.84Y-372.74
T4
X335.0Y-203.0
X335.0Y-211.6
X335.0Y-220.2
X335.0Y-228.9
X338.0Y-253.5
X338.0Y-258.5
X338.0Y-268.5
X338.0Y-273.5
X350.24Y-203.0
X350.24Y-211.6
X350.24Y-220.2
X350.24Y-228.9
X354.84Y-253.5
X354.84Y-268.5
X359.38Y-201.5
X359.38Y-204.04
X359.38Y-210.1
X359.38Y-212.64
X359.38Y-218.7
X359.38Y-221.24
X359.38Y-227.4
X359.38Y-229.94
X365.0Y-253.5
X365.0Y-268.5
X367.0Y-201.5
X367.0Y-204.04
X367.0Y-210.1
X367.0Y-212.64
X367.0Y-218.7
X367.0Y-221.24
X367.0Y-227.4
X367.0Y-229.94
X370.0Y-202.9
X370.0Y-211.3
X370.0Y-219.9
X370.0Y-228.6
X371.3Y-251.88
X371.3Y-262.04
X371.3Y-267.04
X371.3Y-277.2
X376.4Y-192.9
X380.16Y-202.9
X380.16Y-211.3
X380.16Y-219.9
X380.16Y-228.6
X381.4Y-192.9
X416.1Y-192.9
X417.44Y-202.7
X417.44Y-208.8
X417.44Y-214.9
X417.44Y-221.0
X417.44Y-227.1
X417.44Y-233.2
X421.1Y-192.9
X424.3Y-289.24
X424.3Y-299.4
X424.3Y-304.82
X424.3Y-314.98
X427.6Y-202.7
X427.6Y-208.8
X427.6Y-214.9
X427.6Y-221.0
X427.6Y-227.1
X427.6Y-233.2
X429.98Y-289.7
X429.98Y-292.24
X429.98Y-294.78
X429.98Y-297.32
X430.48Y-305.28
X430.48Y-307.82
X430.48Y-310.36
X430.48Y-312.9
X432.1Y-207.08
X432.1Y-209.62
X432.1Y-212.16
X432.1Y-214.7
X432.1Y-217.24
X432.1Y-219.78
X432.1Y-222.32
X432.1Y-224.86
X432.1Y-227.4
X437.6Y-289.7
X437.6Y-292.24
X437.6Y-294.78
X437.6Y-297.32
X438.1Y-305.28
X438.1Y-307.82
X438.1Y-310.36
X438.1Y-312.9
X439.72Y-207.08
X439.72Y-209.62
X439.72Y-212.16
X439.72Y-214.7
X439.72Y-217.24
X439.72Y-219.78
X439.72Y-222.32
X439.72Y-224.86
X439.72Y-227.4
X441.9Y-303.86
X441.94Y-288.28
X452.06Y-303.86
X452.1Y-288.28
X456.04Y-331.94
X456.04Y-336.94
X456.04Y-359.74
X456.04Y-364.74
X463.08Y-322.98
X463.08Y-333.14
X463.08Y-350.78
X463.08Y-360.94
X467.28Y-331.84
X467.28Y-359.64
X477.44Y-331.84
X477.44Y-359.64
T5
X353.51Y-203.0
X353.51Y-211.6
X353.51Y-220.2
X353.51Y-228.9
X356.05Y-203.0
X356.05Y-211.6
X356.05Y-220.2
X356.05Y-228.9
X446.86Y-180.0
X446.86Y-199.6
X446.86Y-217.6
X446.86Y-236.4
X446.86Y-254.5
X446.86Y-273.6
X449.4Y-180.0
X449.4Y-199.6
X449.4Y-217.6
X449.4Y-236.4
X449.4Y-254.5
X449.4Y-273.6
T6
X386.3Y-198.3
X386.3Y-200.84
X386.3Y-203.38
X386.3Y-205.92
X386.3Y-208.46
X386.3Y-211.0
X386.3Y-213.54
X386.3Y-216.08
X386.3Y-218.62
X386.3Y-221.16
X386.3Y-223.7
X386.3Y-226.24
X386.3Y-228.78
X386.3Y-231.32
X386.3Y-233.86
X386.3Y-236.4
X386.3Y-238.94
X386.3Y-241.48
X386.3Y-244.02
X386.3Y-246.56
X386.3Y-257.2
X386.3Y-259.74
X386.3Y-262.28
X386.3Y-264.82
X386.3Y-267.36
X386.3Y-269.9
X386.3Y-272.44
X386.3Y-274.98
X386.3Y-277.52
X386.3Y-280.06
X386.3Y-282.6
X386.3Y-285.14
X386.3Y-287.68
X386.3Y-290.22
X386.3Y-292.76
X386.3Y-295.3
X386.3Y-297.84
X386.3Y-300.38
X386.3Y-302.92
X386.3Y-305.46
X411.7Y-198.34
X411.7Y-200.88
X411.7Y-203.42
X411.7Y-205.96
X411.7Y-208.5
X411.7Y-211.04
X411.7Y-213.58
X411.7Y-216.12
X411.7Y-218.66
X411.7Y-221.2
X411.7Y-223.74
X411.7Y-226.28
X411.7Y-228.82
X411.7Y-231.36
X411.7Y-233.9
X411.7Y-236.44
X411.7Y-238.98
X411.7Y-241.52
X411.7Y-244.06
X411.7Y-246.6
X411.7Y-257.04
X411.7Y-259.58
X411.7Y-262.12
X411.7Y-264.66
X411.7Y-267.2
X411.7Y-269.74
X411.7Y-272.28
X411.7Y-274.82
X411.7Y-277.36
X411.7Y-279.9
X411.7Y-282.44
X411.7Y-284.98
X411.7Y-287.52
X411.7Y-290.06
X411.7Y-292.6
X411.7Y-295.14
X411.7Y-297.68
X411.7Y-300.22
X411.7Y-302.76
X411.7Y-305.3
X446.44Y-171.6
X446.44Y-190.4
X446.44Y-209.2
X446.44Y-228.0
X446.44Y-246.8
X446.44Y-265.6
X450.22Y-171.6
X450.22Y-190.4
X450.22Y-209.2
X450.22Y-228.0
X450.22Y-246.8
X450.22Y-265.6
T7
X470.2Y-283.74
X470.2Y-298.98
X470.2Y-302.34
X470.2Y-317.58
T8
X326.0Y-185.3
X326.0Y-190.3
X326.0Y-195.3
X326.0Y-202.1
X326.0Y-207.1
X326.0Y-212.1
X326.0Y-218.9
X326.0Y-223.9
X326.0Y-228.9
X326.0Y-235.7
X326.0Y-240.7
X326.0Y-245.7
X326.0Y-257.44
X326.0Y-262.44
X326.0Y-267.44
X326.0Y-291.0
X326.0Y-296.0
X326.0Y-301.0
X339.1Y-178.1
X344.1Y-178.1
X348.1Y-301.0
X349.1Y-178.1
X359.3Y-178.1
X364.3Y-178.1
X369.3Y-178.1
X370.6Y-301.0
X461.56Y-171.6
X461.56Y-190.4
X461.56Y-209.2
X461.56Y-228.0
X461.56Y-246.8
X461.56Y-265.6
X466.6Y-171.6
X466.6Y-190.4
X466.6Y-209.2
X466.6Y-228.0
X466.6Y-246.8
X466.6Y-265.6
X471.64Y-171.6
X471.64Y-190.4
X471.64Y-209.2
X471.64Y-228.0
X471.64Y-246.8
X471.64Y-265.6
X480.3Y-172.6
X480.3Y-177.6
X480.3Y-182.6
X480.3Y-191.4
X480.3Y-196.4
X480.3Y-201.4
X480.3Y-210.2
X480.3Y-215.2
X480.3Y-220.2
X480.3Y-229.0
X480.3Y-234.0
X480.3Y-239.0
X480.3Y-247.8
X480.3Y-252.8
X480.3Y-257.8
X480.3Y-266.6
X480.3Y-271.6
X480.3Y-276.6
X480.3Y-287.3
X480.3Y-292.3
X480.3Y-297.3
X480.3Y-305.9
X480.3Y-310.9
X480.3Y-315.9
X480.3Y-341.0
X480.3Y-346.0
X480.3Y-351.0
T9
X311.7Y-317.9
X311.7Y-360.9
X332.7Y-317.9
X332.7Y-360.9
X348.1Y-332.1
X348.1Y-369.9
X364.0Y-187.5
X369.1Y-332.1
X369.1Y-369.9
X385.4Y-318.3
X385.4Y-355.5
X406.4Y-318.3
X406.4Y-355.5
X422.0Y-333.3
X422.0Y-369.3
X443.0Y-333.3
X443.0Y-369.3
X451.7Y-296.52
X451.9Y-312.1
X457.15Y-296.52
X457.35Y-312.1
X462.6Y-296.52
X462.8Y-312.1
T10
X308.0Y-174.0
X308.0Y-378.0
X493.0Y-174.0
X493.0Y-378.0
M30
