%TF.GenerationSoftware,KiCad,Pcbnew,9.0.9-9.0.9~ubuntu24.04.1*%
%TF.CreationDate,2026-07-31T12:10:31-06:00*%
%TF.ProjectId,HORNO_PCB,484f524e-4f5f-4504-9342-2e6b69636164,rev?*%
%TF.SameCoordinates,Original*%
%TF.FileFunction,Copper,L1,Top*%
%TF.FilePolarity,Positive*%
%FSLAX46Y46*%
G04 Gerber Fmt 4.6, Leading zero omitted, Abs format (unit mm)*
G04 Created by KiCad (PCBNEW 9.0.9-9.0.9~ubuntu24.04.1) date 2026-07-31 12:10:31*
%MOMM*%
%LPD*%
G01*
G04 APERTURE LIST*
G04 Aperture macros list*
%AMRoundRect*
0 Rectangle with rounded corners*
0 $1 Rounding radius*
0 $2 $3 $4 $5 $6 $7 $8 $9 X,Y pos of 4 corners*
0 Add a 4 corners polygon primitive as box body*
4,1,4,$2,$3,$4,$5,$6,$7,$8,$9,$2,$3,0*
0 Add four circle primitives for the rounded corners*
1,1,$1+$1,$2,$3*
1,1,$1+$1,$4,$5*
1,1,$1+$1,$6,$7*
1,1,$1+$1,$8,$9*
0 Add four rect primitives between the rounded corners*
20,1,$1+$1,$2,$3,$4,$5,0*
20,1,$1+$1,$4,$5,$6,$7,0*
20,1,$1+$1,$6,$7,$8,$9,0*
20,1,$1+$1,$8,$9,$2,$3,0*%
G04 Aperture macros list end*
%TA.AperFunction,ComponentPad*%
%ADD10R,1.800000X1.800000*%
%TD*%
%TA.AperFunction,ComponentPad*%
%ADD11C,1.800000*%
%TD*%
%TA.AperFunction,ComponentPad*%
%ADD12C,3.000000*%
%TD*%
%TA.AperFunction,ComponentPad*%
%ADD13R,1.130000X1.130000*%
%TD*%
%TA.AperFunction,ComponentPad*%
%ADD14C,1.130000*%
%TD*%
%TA.AperFunction,ComponentPad*%
%ADD15RoundRect,0.250000X1.050000X-1.050000X1.050000X1.050000X-1.050000X1.050000X-1.050000X-1.050000X0*%
%TD*%
%TA.AperFunction,ComponentPad*%
%ADD16C,2.600000*%
%TD*%
%TA.AperFunction,ComponentPad*%
%ADD17C,1.600000*%
%TD*%
%TA.AperFunction,ComponentPad*%
%ADD18C,2.400000*%
%TD*%
%TA.AperFunction,ComponentPad*%
%ADD19R,2.000000X2.000000*%
%TD*%
%TA.AperFunction,ComponentPad*%
%ADD20C,2.000000*%
%TD*%
%TA.AperFunction,ComponentPad*%
%ADD21R,1.200000X1.130000*%
%TD*%
%TA.AperFunction,ComponentPad*%
%ADD22C,1.200000*%
%TD*%
%TA.AperFunction,ComponentPad*%
%ADD23RoundRect,0.250000X1.050000X1.050000X-1.050000X1.050000X-1.050000X-1.050000X1.050000X-1.050000X0*%
%TD*%
%TA.AperFunction,ComponentPad*%
%ADD24R,1.700000X1.700000*%
%TD*%
%TA.AperFunction,ComponentPad*%
%ADD25C,1.700000*%
%TD*%
%TA.AperFunction,ComponentPad*%
%ADD26C,7.000000*%
%TD*%
%TA.AperFunction,ComponentPad*%
%ADD27RoundRect,0.250000X-0.550000X-0.550000X0.550000X-0.550000X0.550000X0.550000X-0.550000X0.550000X0*%
%TD*%
%TA.AperFunction,ComponentPad*%
%ADD28R,2.500000X4.500000*%
%TD*%
%TA.AperFunction,ComponentPad*%
%ADD29O,2.500000X4.500000*%
%TD*%
%TA.AperFunction,ComponentPad*%
%ADD30RoundRect,0.250000X-0.950000X-0.550000X0.950000X-0.550000X0.950000X0.550000X-0.950000X0.550000X0*%
%TD*%
%TA.AperFunction,ComponentPad*%
%ADD31O,2.400000X1.600000*%
%TD*%
%TA.AperFunction,ComponentPad*%
%ADD32R,1.300000X1.300000*%
%TD*%
%TA.AperFunction,ComponentPad*%
%ADD33C,1.300000*%
%TD*%
%TA.AperFunction,ViaPad*%
%ADD34C,0.600000*%
%TD*%
%TA.AperFunction,Conductor*%
%ADD35C,1.000000*%
%TD*%
%TA.AperFunction,Conductor*%
%ADD36C,0.200000*%
%TD*%
G04 APERTURE END LIST*
D10*
%TO.P,D3,1,K*%
%TO.N,Net-(D3-K)*%
X356050000Y-220200000D03*
D11*
%TO.P,D3,2,A*%
%TO.N,Net-(D3-A)*%
X353510000Y-220200000D03*
%TD*%
D12*
%TO.P,J20,1,Pin_1*%
%TO.N,Net-(J0_13-Pin_2)*%
X406400000Y-355500000D03*
%TD*%
D13*
%TO.P,U18,1,NULL*%
%TO.N,unconnected-(U18-NULL-Pad1)*%
X462900000Y-365120000D03*
D14*
%TO.P,U18,2,-*%
%TO.N,Net-(U18--)*%
X462900000Y-367660000D03*
%TO.P,U18,3,+*%
%TO.N,Net-(J25-Pin_8)*%
X462900000Y-370200000D03*
%TO.P,U18,4,V-*%
%TO.N,Net-(J15-Pin_1)*%
X462900000Y-372740000D03*
%TO.P,U18,5,NULL*%
%TO.N,unconnected-(U18-NULL-Pad5)*%
X470840000Y-372740000D03*
%TO.P,U18,6*%
%TO.N,Net-(J0_13-Pin_1)*%
X470840000Y-370200000D03*
%TO.P,U18,7,V+*%
%TO.N,Net-(J8-Pin_1)*%
X470840000Y-367660000D03*
%TO.P,U18,8,NC*%
%TO.N,unconnected-(U18-NC-Pad8)*%
X470840000Y-365120000D03*
%TD*%
D15*
%TO.P,J0_18,1,Pin_1*%
%TO.N,Net-(J0_18-Pin_1)*%
X480300000Y-315900000D03*
D16*
%TO.P,J0_18,2,Pin_2*%
%TO.N,Net-(J0_18-Pin_2)*%
X480300000Y-310900000D03*
%TO.P,J0_18,3,Pin_3*%
%TO.N,Net-(J0_13-Pin_2)*%
X480300000Y-305900000D03*
%TD*%
D12*
%TO.P,J16,1,Pin_1*%
%TO.N,Net-(J0_13-Pin_2)*%
X332700000Y-360900000D03*
%TD*%
%TO.P,J18,1,Pin_1*%
%TO.N,Net-(J0_13-Pin_2)*%
X369100000Y-369900000D03*
%TD*%
D17*
%TO.P,R19,1*%
%TO.N,Net-(Q6-G)*%
X452060000Y-303860000D03*
%TO.P,R19,2*%
%TO.N,Net-(R19-Pad2)*%
X441900000Y-303860000D03*
%TD*%
D18*
%TO.P,K2,11*%
%TO.N,Net-(J0_6-Pin_2)*%
X466600000Y-246800000D03*
%TO.P,K2,12*%
%TO.N,Net-(J0_6-Pin_1)*%
X461560000Y-246800000D03*
%TO.P,K2,14*%
%TO.N,Net-(J0_6-Pin_3)*%
X471640000Y-246800000D03*
D19*
%TO.P,K2,A1*%
%TO.N,Net-(D13-K)*%
X446440000Y-246800000D03*
D20*
%TO.P,K2,A2*%
%TO.N,Net-(D10-A)*%
X450220000Y-246800000D03*
%TD*%
D17*
%TO.P,R23,1*%
%TO.N,Net-(U18--)*%
X463080000Y-360940000D03*
%TO.P,R23,2*%
%TO.N,Net-(J0_13-Pin_2)*%
X463080000Y-350780000D03*
%TD*%
D21*
%TO.P,U10,1,NULL*%
%TO.N,unconnected-(U10-NULL-Pad1)*%
X343460000Y-267690000D03*
D22*
%TO.P,U10,2,-*%
%TO.N,Net-(U10--)*%
X343460000Y-270230000D03*
%TO.P,U10,3,+*%
%TO.N,Net-(J0_5-Pin_2)*%
X343460000Y-272770000D03*
%TO.P,U10,4,V-*%
%TO.N,Net-(J15-Pin_1)*%
X343460000Y-275310000D03*
%TO.P,U10,5,NULL*%
%TO.N,unconnected-(U10-NULL-Pad5)*%
X351400000Y-275310000D03*
%TO.P,U10,6*%
%TO.N,Net-(U10--)*%
X351400000Y-272770000D03*
%TO.P,U10,7,V+*%
%TO.N,Net-(J8-Pin_1)*%
X351400000Y-270230000D03*
%TO.P,U10,8,NC*%
%TO.N,unconnected-(U10-NC-Pad8)*%
X351400000Y-267690000D03*
%TD*%
D17*
%TO.P,R37,1*%
%TO.N,Net-(J25-Pin_10)*%
X371300000Y-277200000D03*
%TO.P,R37,2*%
%TO.N,Net-(J0_13-Pin_2)*%
X371300000Y-267040000D03*
%TD*%
D10*
%TO.P,D11,1,K*%
%TO.N,Net-(D11-K)*%
X446860000Y-217600000D03*
D11*
%TO.P,D11,2,A*%
%TO.N,Net-(D10-A)*%
X449400000Y-217600000D03*
%TD*%
D23*
%TO.P,J0_1,1,Pin_1*%
%TO.N,Net-(J0_1-Pin_1)*%
X369300000Y-178100000D03*
D16*
%TO.P,J0_1,2,Pin_2*%
X364300000Y-178100000D03*
%TO.P,J0_1,3,Pin_3*%
X359300000Y-178100000D03*
%TD*%
D24*
%TO.P,J27,1,Pin_1*%
%TO.N,unconnected-(J27-Pin_1-Pad1)*%
X411700000Y-305300000D03*
D25*
%TO.P,J27,2,Pin_2*%
%TO.N,unconnected-(J27-Pin_2-Pad2)*%
X411700000Y-302760000D03*
%TO.P,J27,3,Pin_3*%
%TO.N,unconnected-(J27-Pin_3-Pad3)*%
X411700000Y-300220000D03*
%TO.P,J27,4,Pin_4*%
%TO.N,unconnected-(J27-Pin_4-Pad4)*%
X411700000Y-297680000D03*
%TO.P,J27,5,Pin_5*%
%TO.N,unconnected-(J27-Pin_5-Pad5)*%
X411700000Y-295140000D03*
%TO.P,J27,6,Pin_6*%
%TO.N,unconnected-(J27-Pin_6-Pad6)*%
X411700000Y-292600000D03*
%TO.P,J27,7,Pin_7*%
%TO.N,unconnected-(J27-Pin_7-Pad7)*%
X411700000Y-290060000D03*
%TO.P,J27,8,Pin_8*%
%TO.N,unconnected-(J27-Pin_8-Pad8)*%
X411700000Y-287520000D03*
%TO.P,J27,9,Pin_9*%
%TO.N,unconnected-(J27-Pin_9-Pad9)*%
X411700000Y-284980000D03*
%TO.P,J27,10,Pin_10*%
%TO.N,unconnected-(J27-Pin_10-Pad10)*%
X411700000Y-282440000D03*
%TO.P,J27,11,Pin_11*%
%TO.N,unconnected-(J27-Pin_11-Pad11)*%
X411700000Y-279900000D03*
%TO.P,J27,12,Pin_12*%
%TO.N,unconnected-(J27-Pin_12-Pad12)*%
X411700000Y-277360000D03*
%TO.P,J27,13,Pin_13*%
%TO.N,unconnected-(J27-Pin_13-Pad13)*%
X411700000Y-274820000D03*
%TO.P,J27,14,Pin_14*%
%TO.N,unconnected-(J27-Pin_14-Pad14)*%
X411700000Y-272280000D03*
%TO.P,J27,15,Pin_15*%
%TO.N,unconnected-(J27-Pin_15-Pad15)*%
X411700000Y-269740000D03*
%TO.P,J27,16,Pin_16*%
%TO.N,unconnected-(J27-Pin_16-Pad16)*%
X411700000Y-267200000D03*
%TO.P,J27,17,Pin_17*%
%TO.N,unconnected-(J27-Pin_17-Pad17)*%
X411700000Y-264660000D03*
%TO.P,J27,18,Pin_18*%
%TO.N,unconnected-(J27-Pin_18-Pad18)*%
X411700000Y-262120000D03*
%TO.P,J27,19,Pin_19*%
%TO.N,unconnected-(J27-Pin_19-Pad19)*%
X411700000Y-259580000D03*
%TO.P,J27,20,Pin_20*%
%TO.N,unconnected-(J27-Pin_20-Pad20)*%
X411700000Y-257040000D03*
%TD*%
D26*
%TO.P,MH2,1*%
%TO.N,N/C*%
X493000000Y-378000000D03*
%TD*%
D17*
%TO.P,R3,1*%
%TO.N,Net-(J25-Pin_17)*%
X370000000Y-219900000D03*
%TO.P,R3,2*%
%TO.N,Net-(J13-Pin_1)*%
X380160000Y-219900000D03*
%TD*%
D13*
%TO.P,U17,1,NULL*%
%TO.N,unconnected-(U17-NULL-Pad1)*%
X462900000Y-337320000D03*
D14*
%TO.P,U17,2,-*%
%TO.N,Net-(U17--)*%
X462900000Y-339860000D03*
%TO.P,U17,3,+*%
%TO.N,Net-(J25-Pin_9)*%
X462900000Y-342400000D03*
%TO.P,U17,4,V-*%
%TO.N,Net-(J15-Pin_1)*%
X462900000Y-344940000D03*
%TO.P,U17,5,NULL*%
%TO.N,unconnected-(U17-NULL-Pad5)*%
X470840000Y-344940000D03*
%TO.P,U17,6*%
%TO.N,Net-(J0_13-Pin_3)*%
X470840000Y-342400000D03*
%TO.P,U17,7,V+*%
%TO.N,Net-(J8-Pin_1)*%
X470840000Y-339860000D03*
%TO.P,U17,8,NC*%
%TO.N,unconnected-(U17-NC-Pad8)*%
X470840000Y-337320000D03*
%TD*%
D17*
%TO.P,C7,1*%
%TO.N,Net-(J24-Pin_3)*%
X376400000Y-192900000D03*
%TO.P,C7,2*%
%TO.N,Net-(J0_3-Pin_3)*%
X381400000Y-192900000D03*
%TD*%
D15*
%TO.P,J0_4,1,Pin_1*%
%TO.N,Net-(J0_4-Pin_1)*%
X480300000Y-276600000D03*
D16*
%TO.P,J0_4,2,Pin_2*%
%TO.N,Net-(J0_4-Pin_2)*%
X480300000Y-271600000D03*
%TO.P,J0_4,3,Pin_3*%
%TO.N,Net-(J0_4-Pin_3)*%
X480300000Y-266600000D03*
%TD*%
D12*
%TO.P,J22,1,Pin_1*%
%TO.N,unconnected-(J22-Pin_1-Pad1)*%
X443000000Y-369300000D03*
%TD*%
D17*
%TO.P,R24,1*%
%TO.N,Net-(J0_13-Pin_1)*%
X477440000Y-359640000D03*
%TO.P,R24,2*%
%TO.N,Net-(U18--)*%
X467280000Y-359640000D03*
%TD*%
D26*
%TO.P,MH4,1*%
%TO.N,N/C*%
X308000000Y-174000000D03*
%TD*%
D10*
%TO.P,D10,1,K*%
%TO.N,Net-(D10-K)*%
X446860000Y-199600000D03*
D11*
%TO.P,D10,2,A*%
%TO.N,Net-(D10-A)*%
X449400000Y-199600000D03*
%TD*%
D21*
%TO.P,U9,1,NULL*%
%TO.N,unconnected-(U9-NULL-Pad1)*%
X343460000Y-252690000D03*
D22*
%TO.P,U9,2,-*%
%TO.N,Net-(U9--)*%
X343460000Y-255230000D03*
%TO.P,U9,3,+*%
%TO.N,Net-(J0_5-Pin_1)*%
X343460000Y-257770000D03*
%TO.P,U9,4,V-*%
%TO.N,Net-(J15-Pin_1)*%
X343460000Y-260310000D03*
%TO.P,U9,5,NULL*%
%TO.N,unconnected-(U9-NULL-Pad5)*%
X351400000Y-260310000D03*
%TO.P,U9,6*%
%TO.N,Net-(U9--)*%
X351400000Y-257770000D03*
%TO.P,U9,7,V+*%
%TO.N,Net-(J8-Pin_1)*%
X351400000Y-255230000D03*
%TO.P,U9,8,NC*%
%TO.N,unconnected-(U9-NC-Pad8)*%
X351400000Y-252690000D03*
%TD*%
D12*
%TO.P,J9,1,Pin_1*%
%TO.N,Net-(J0_13-Pin_2)*%
X332700000Y-317900000D03*
%TD*%
D15*
%TO.P,J0_10,1,Pin_1*%
%TO.N,Net-(J0_10-Pin_1)*%
X480300000Y-182600000D03*
D16*
%TO.P,J0_10,2,Pin_2*%
%TO.N,Net-(J0_10-Pin_2)*%
X480300000Y-177600000D03*
%TO.P,J0_10,3,Pin_3*%
%TO.N,Net-(J0_10-Pin_3)*%
X480300000Y-172600000D03*
%TD*%
D12*
%TO.P,J17,1,Pin_1*%
%TO.N,Net-(D10-A)*%
X311700000Y-360900000D03*
%TD*%
%TO.P,J11,1,Pin_1*%
%TO.N,Net-(J11-Pin_1)*%
X348100000Y-332100000D03*
%TD*%
D27*
%TO.P,U1,1*%
%TO.N,Net-(D1-K)*%
X359380000Y-201500000D03*
D17*
%TO.P,U1,2*%
%TO.N,Net-(J0_13-Pin_2)*%
X359380000Y-204040000D03*
%TO.P,U1,3*%
X367000000Y-204040000D03*
%TO.P,U1,4*%
%TO.N,Net-(J25-Pin_13)*%
X367000000Y-201500000D03*
%TD*%
D28*
%TO.P,Q7,1,G*%
%TO.N,Net-(Q7-G)*%
X451700000Y-296520000D03*
D29*
%TO.P,Q7,2,C*%
%TO.N,Net-(J0_14-Pin_1)*%
X457150000Y-296520000D03*
%TO.P,Q7,3,E*%
%TO.N,Net-(J0_13-Pin_2)*%
X462600000Y-296520000D03*
%TD*%
D26*
%TO.P,MH1,1*%
%TO.N,N/C*%
X308000000Y-378000000D03*
%TD*%
D15*
%TO.P,J7,1,Pin_1*%
%TO.N,Net-(J7-Pin_1)*%
X326000000Y-301000000D03*
D16*
%TO.P,J7,2,Pin_2*%
%TO.N,unconnected-(J7-Pin_2-Pad2)*%
X326000000Y-296000000D03*
%TO.P,J7,3,Pin_3*%
%TO.N,Net-(J0_13-Pin_2)*%
X326000000Y-291000000D03*
%TD*%
D12*
%TO.P,J21,1,Pin_1*%
%TO.N,Net-(D10-A)*%
X385400000Y-355500000D03*
%TD*%
D10*
%TO.P,D4,1,K*%
%TO.N,Net-(D4-K)*%
X356050000Y-228900000D03*
D11*
%TO.P,D4,2,A*%
%TO.N,Net-(D4-A)*%
X353510000Y-228900000D03*
%TD*%
D17*
%TO.P,C9,1*%
%TO.N,Net-(J25-Pin_8)*%
X456040000Y-364740000D03*
%TO.P,C9,2*%
%TO.N,Net-(J0_13-Pin_2)*%
X456040000Y-359740000D03*
%TD*%
%TO.P,R48,1*%
%TO.N,Net-(U25-I1)*%
X427600000Y-202700000D03*
%TO.P,R48,2*%
%TO.N,Net-(J25-Pin_6)*%
X417440000Y-202700000D03*
%TD*%
D12*
%TO.P,J8,1,Pin_1*%
%TO.N,Net-(J8-Pin_1)*%
X311700000Y-317900000D03*
%TD*%
%TO.P,J19,1,Pin_1*%
%TO.N,Net-(D10-A)*%
X348100000Y-369900000D03*
%TD*%
%TO.P,F1,1*%
%TO.N,Net-(D10-A)*%
X370600000Y-301000000D03*
%TO.P,F1,2*%
%TO.N,Net-(J7-Pin_1)*%
X348100000Y-301000000D03*
%TD*%
D15*
%TO.P,J0_9,1,Pin_1*%
%TO.N,Net-(J0_9-Pin_1)*%
X480300000Y-201400000D03*
D16*
%TO.P,J0_9,2,Pin_2*%
%TO.N,Net-(J0_9-Pin_2)*%
X480300000Y-196400000D03*
%TO.P,J0_9,3,Pin_3*%
%TO.N,Net-(J0_9-Pin_3)*%
X480300000Y-191400000D03*
%TD*%
D17*
%TO.P,R28,1*%
%TO.N,Net-(J0_2-Pin_1)*%
X335000000Y-203000000D03*
%TO.P,R28,2*%
%TO.N,Net-(D1-A)*%
X350240000Y-203000000D03*
%TD*%
D30*
%TO.P,U25,1,I1*%
%TO.N,Net-(U25-I1)*%
X432100000Y-207080000D03*
D31*
%TO.P,U25,2,I2*%
%TO.N,Net-(U25-I2)*%
X432100000Y-209620000D03*
%TO.P,U25,3,I3*%
%TO.N,Net-(U25-I3)*%
X432100000Y-212160000D03*
%TO.P,U25,4,I4*%
%TO.N,Net-(U25-I4)*%
X432100000Y-214700000D03*
%TO.P,U25,5,I5*%
%TO.N,Net-(U25-I5)*%
X432100000Y-217240000D03*
%TO.P,U25,6,I6*%
%TO.N,Net-(U25-I6)*%
X432100000Y-219780000D03*
%TO.P,U25,7,I7*%
%TO.N,unconnected-(U25-I7-Pad7)*%
X432100000Y-222320000D03*
%TO.P,U25,8,I8*%
%TO.N,unconnected-(U25-I8-Pad8)*%
X432100000Y-224860000D03*
%TO.P,U25,9,Vs*%
%TO.N,Net-(J8-Pin_1)*%
X432100000Y-227400000D03*
%TO.P,U25,10,GND*%
%TO.N,Net-(J0_13-Pin_2)*%
X439720000Y-227400000D03*
%TO.P,U25,11,O8*%
%TO.N,unconnected-(U25-O8-Pad11)*%
X439720000Y-224860000D03*
%TO.P,U25,12,O7*%
%TO.N,unconnected-(U25-O7-Pad12)*%
X439720000Y-222320000D03*
%TO.P,U25,13,O6*%
%TO.N,Net-(D14-K)*%
X439720000Y-219780000D03*
%TO.P,U25,14,O5*%
%TO.N,Net-(D13-K)*%
X439720000Y-217240000D03*
%TO.P,U25,15,O4*%
%TO.N,Net-(D12-K)*%
X439720000Y-214700000D03*
%TO.P,U25,16,O3*%
%TO.N,Net-(D11-K)*%
X439720000Y-212160000D03*
%TO.P,U25,17,O2*%
%TO.N,Net-(D10-K)*%
X439720000Y-209620000D03*
%TO.P,U25,18,O1*%
%TO.N,Net-(D9-K)*%
X439720000Y-207080000D03*
%TD*%
D17*
%TO.P,R14,1*%
%TO.N,Net-(Q1-B)*%
X365000000Y-253500000D03*
%TO.P,R14,2*%
%TO.N,Net-(U9--)*%
X354840000Y-253500000D03*
%TD*%
%TO.P,R12,1*%
%TO.N,Net-(J0_15-Pin_1)*%
X335000000Y-228900000D03*
%TO.P,R12,2*%
%TO.N,Net-(D4-A)*%
X350240000Y-228900000D03*
%TD*%
D12*
%TO.P,J23,1,Pin_1*%
%TO.N,unconnected-(J23-Pin_1-Pad1)*%
X422000000Y-369300000D03*
%TD*%
D17*
%TO.P,R25,1*%
%TO.N,Net-(Q7-G)*%
X452100000Y-288280000D03*
%TO.P,R25,2*%
%TO.N,Net-(R25-Pad2)*%
X441940000Y-288280000D03*
%TD*%
D15*
%TO.P,J0_8,1,Pin_1*%
%TO.N,Net-(J0_8-Pin_1)*%
X480300000Y-220200000D03*
D16*
%TO.P,J0_8,2,Pin_2*%
%TO.N,Net-(J0_8-Pin_2)*%
X480300000Y-215200000D03*
%TO.P,J0_8,3,Pin_3*%
%TO.N,Net-(J0_8-Pin_3)*%
X480300000Y-210200000D03*
%TD*%
D17*
%TO.P,R26,1*%
%TO.N,Net-(U19-A)*%
X424300000Y-299400000D03*
%TO.P,R26,2*%
%TO.N,Net-(J24-Pin_17)*%
X424300000Y-289240000D03*
%TD*%
D15*
%TO.P,J0_12,1,Pin_1*%
%TO.N,Net-(J0_12-Pin_1)*%
X326000000Y-228900000D03*
D16*
%TO.P,J0_12,2,Pin_2*%
%TO.N,unconnected-(J0_12-Pin_2-Pad2)*%
X326000000Y-223900000D03*
%TO.P,J0_12,3,Pin_3*%
%TO.N,Net-(D10-A)*%
X326000000Y-218900000D03*
%TD*%
D18*
%TO.P,R6,1*%
%TO.N,Net-(J0_14-Pin_2)*%
X470200000Y-283740000D03*
%TO.P,R6,2*%
%TO.N,Net-(J0_14-Pin_1)*%
X470200000Y-298980000D03*
%TD*%
D32*
%TO.P,Q1,1,E*%
%TO.N,Net-(J25-Pin_11)*%
X363300000Y-260500000D03*
D33*
%TO.P,Q1,2,B*%
%TO.N,Net-(Q1-B)*%
X364570000Y-259230000D03*
%TO.P,Q1,3,C*%
%TO.N,Net-(J13-Pin_1)*%
X365840000Y-260500000D03*
%TD*%
D27*
%TO.P,U15,1,NC*%
%TO.N,unconnected-(U15-NC-Pad1)*%
X430480000Y-305280000D03*
D17*
%TO.P,U15,2,A*%
%TO.N,Net-(U15-A)*%
X430480000Y-307820000D03*
%TO.P,U15,3,C*%
%TO.N,Net-(J0_13-Pin_2)*%
X430480000Y-310360000D03*
%TO.P,U15,4,NC*%
%TO.N,unconnected-(U15-NC-Pad4)*%
X430480000Y-312900000D03*
%TO.P,U15,5,VEE*%
%TO.N,Net-(J15-Pin_1)*%
X438100000Y-312900000D03*
%TO.P,U15,6,VO*%
%TO.N,unconnected-(U15-VO-Pad6)*%
X438100000Y-310360000D03*
%TO.P,U15,7,VO*%
%TO.N,Net-(R19-Pad2)*%
X438100000Y-307820000D03*
%TO.P,U15,8,VCC*%
%TO.N,Net-(J8-Pin_1)*%
X438100000Y-305280000D03*
%TD*%
%TO.P,R46,1*%
%TO.N,Net-(U25-I2)*%
X427600000Y-208800000D03*
%TO.P,R46,2*%
%TO.N,Net-(J25-Pin_4)*%
X417440000Y-208800000D03*
%TD*%
D18*
%TO.P,K8,11*%
%TO.N,Net-(J0_8-Pin_2)*%
X466600000Y-209200000D03*
%TO.P,K8,12*%
%TO.N,Net-(J0_8-Pin_1)*%
X461560000Y-209200000D03*
%TO.P,K8,14*%
%TO.N,Net-(J0_8-Pin_3)*%
X471640000Y-209200000D03*
D19*
%TO.P,K8,A1*%
%TO.N,Net-(D11-K)*%
X446440000Y-209200000D03*
D20*
%TO.P,K8,A2*%
%TO.N,Net-(D10-A)*%
X450220000Y-209200000D03*
%TD*%
D23*
%TO.P,J0_3,1,Pin_1*%
%TO.N,Net-(J0_3-Pin_1)*%
X349100000Y-178100000D03*
D16*
%TO.P,J0_3,2,Pin_2*%
%TO.N,Net-(J0_3-Pin_2)*%
X344100000Y-178100000D03*
%TO.P,J0_3,3,Pin_3*%
%TO.N,Net-(J0_3-Pin_3)*%
X339100000Y-178100000D03*
%TD*%
D24*
%TO.P,J25,1,Pin_1*%
%TO.N,unconnected-(J25-Pin_1-Pad1)*%
X411700000Y-246600000D03*
D25*
%TO.P,J25,2,Pin_2*%
%TO.N,unconnected-(J25-Pin_2-Pad2)*%
X411700000Y-244060000D03*
%TO.P,J25,3,Pin_3*%
%TO.N,Net-(J25-Pin_3)*%
X411700000Y-241520000D03*
%TO.P,J25,4,Pin_4*%
%TO.N,Net-(J25-Pin_4)*%
X411700000Y-238980000D03*
%TO.P,J25,5,Pin_5*%
%TO.N,Net-(J25-Pin_5)*%
X411700000Y-236440000D03*
%TO.P,J25,6,Pin_6*%
%TO.N,Net-(J25-Pin_6)*%
X411700000Y-233900000D03*
%TO.P,J25,7,Pin_7*%
%TO.N,unconnected-(J25-Pin_7-Pad7)*%
X411700000Y-231360000D03*
%TO.P,J25,8,Pin_8*%
%TO.N,Net-(J25-Pin_8)*%
X411700000Y-228820000D03*
%TO.P,J25,9,Pin_9*%
%TO.N,Net-(J25-Pin_9)*%
X411700000Y-226280000D03*
%TO.P,J25,10,Pin_10*%
%TO.N,Net-(J25-Pin_10)*%
X411700000Y-223740000D03*
%TO.P,J25,11,Pin_11*%
%TO.N,Net-(J25-Pin_11)*%
X411700000Y-221200000D03*
%TO.P,J25,12,Pin_12*%
%TO.N,Net-(J25-Pin_12)*%
X411700000Y-218660000D03*
%TO.P,J25,13,Pin_13*%
%TO.N,Net-(J25-Pin_13)*%
X411700000Y-216120000D03*
%TO.P,J25,14,Pin_14*%
%TO.N,Net-(J25-Pin_14)*%
X411700000Y-213580000D03*
%TO.P,J25,15,Pin_15*%
%TO.N,unconnected-(J25-Pin_15-Pad15)*%
X411700000Y-211040000D03*
%TO.P,J25,16,Pin_16*%
%TO.N,unconnected-(J25-Pin_16-Pad16)*%
X411700000Y-208500000D03*
%TO.P,J25,17,Pin_17*%
%TO.N,Net-(J25-Pin_17)*%
X411700000Y-205960000D03*
%TO.P,J25,18,Pin_18*%
%TO.N,Net-(J25-Pin_18)*%
X411700000Y-203420000D03*
%TO.P,J25,19,Pin_19*%
%TO.N,Net-(J11-Pin_1)*%
X411700000Y-200880000D03*
%TO.P,J25,20,Pin_20*%
%TO.N,Net-(J0_13-Pin_2)*%
X411700000Y-198340000D03*
%TD*%
D26*
%TO.P,MH3,1*%
%TO.N,N/C*%
X493000000Y-174000000D03*
%TD*%
D17*
%TO.P,R44,1*%
%TO.N,Net-(U25-I3)*%
X427600000Y-214900000D03*
%TO.P,R44,2*%
%TO.N,Net-(J25-Pin_5)*%
X417440000Y-214900000D03*
%TD*%
D18*
%TO.P,K6,11*%
%TO.N,Net-(J0_10-Pin_2)*%
X466600000Y-171600000D03*
%TO.P,K6,12*%
%TO.N,Net-(J0_10-Pin_1)*%
X461560000Y-171600000D03*
%TO.P,K6,14*%
%TO.N,Net-(J0_10-Pin_3)*%
X471640000Y-171600000D03*
D19*
%TO.P,K6,A1*%
%TO.N,Net-(D9-K)*%
X446440000Y-171600000D03*
D20*
%TO.P,K6,A2*%
%TO.N,Net-(D10-A)*%
X450220000Y-171600000D03*
%TD*%
D12*
%TO.P,J1,1,Pin_1*%
%TO.N,Net-(J0_1-Pin_1)*%
X364000000Y-187500000D03*
%TD*%
D15*
%TO.P,J0_5,1,Pin_1*%
%TO.N,Net-(J0_5-Pin_1)*%
X326000000Y-267440000D03*
D16*
%TO.P,J0_5,2,Pin_2*%
%TO.N,Net-(J0_5-Pin_2)*%
X326000000Y-262440000D03*
%TO.P,J0_5,3,Pin_3*%
%TO.N,Net-(J0_13-Pin_2)*%
X326000000Y-257440000D03*
%TD*%
D15*
%TO.P,J0_6,1,Pin_1*%
%TO.N,Net-(J0_6-Pin_1)*%
X480300000Y-257800000D03*
D16*
%TO.P,J0_6,2,Pin_2*%
%TO.N,Net-(J0_6-Pin_2)*%
X480300000Y-252800000D03*
%TO.P,J0_6,3,Pin_3*%
%TO.N,Net-(J0_6-Pin_3)*%
X480300000Y-247800000D03*
%TD*%
D12*
%TO.P,J12,1,Pin_1*%
%TO.N,Net-(J0_13-Pin_2)*%
X406400000Y-318300000D03*
%TD*%
D24*
%TO.P,J24,1,Pin_1*%
%TO.N,Net-(J0_3-Pin_3)*%
X386300000Y-198300000D03*
D25*
%TO.P,J24,2,Pin_2*%
%TO.N,Net-(J11-Pin_1)*%
X386300000Y-200840000D03*
%TO.P,J24,3,Pin_3*%
%TO.N,Net-(J24-Pin_3)*%
X386300000Y-203380000D03*
%TO.P,J24,4,Pin_4*%
%TO.N,Net-(J24-Pin_4)*%
X386300000Y-205920000D03*
%TO.P,J24,5,Pin_5*%
%TO.N,Net-(J0_3-Pin_1)*%
X386300000Y-208460000D03*
%TO.P,J24,6,Pin_6*%
%TO.N,Net-(J0_3-Pin_2)*%
X386300000Y-211000000D03*
%TO.P,J24,7,Pin_7*%
%TO.N,unconnected-(J24-Pin_7-Pad7)*%
X386300000Y-213540000D03*
%TO.P,J24,8,Pin_8*%
%TO.N,unconnected-(J24-Pin_8-Pad8)*%
X386300000Y-216080000D03*
%TO.P,J24,9,Pin_9*%
%TO.N,Net-(J24-Pin_9)*%
X386300000Y-218620000D03*
%TO.P,J24,10,Pin_10*%
%TO.N,Net-(J24-Pin_10)*%
X386300000Y-221160000D03*
%TO.P,J24,11,Pin_11*%
%TO.N,Net-(J24-Pin_11)*%
X386300000Y-223700000D03*
%TO.P,J24,12,Pin_12*%
%TO.N,Net-(J24-Pin_12)*%
X386300000Y-226240000D03*
%TO.P,J24,13,Pin_13*%
%TO.N,Net-(J24-Pin_13)*%
X386300000Y-228780000D03*
%TO.P,J24,14,Pin_14*%
%TO.N,unconnected-(J24-Pin_14-Pad14)*%
X386300000Y-231320000D03*
%TO.P,J24,15,Pin_15*%
%TO.N,Net-(J24-Pin_15)*%
X386300000Y-233860000D03*
%TO.P,J24,16,Pin_16*%
%TO.N,Net-(J24-Pin_16)*%
X386300000Y-236400000D03*
%TO.P,J24,17,Pin_17*%
%TO.N,Net-(J24-Pin_17)*%
X386300000Y-238940000D03*
%TO.P,J24,18,Pin_18*%
%TO.N,Net-(J24-Pin_18)*%
X386300000Y-241480000D03*
%TO.P,J24,19,Pin_19*%
%TO.N,unconnected-(J24-Pin_19-Pad19)*%
X386300000Y-244020000D03*
%TO.P,J24,20,Pin_20*%
%TO.N,unconnected-(J24-Pin_20-Pad20)*%
X386300000Y-246560000D03*
%TD*%
D17*
%TO.P,C10,1*%
%TO.N,Net-(J25-Pin_18)*%
X421100000Y-192900000D03*
%TO.P,C10,2*%
%TO.N,Net-(J0_13-Pin_2)*%
X416100000Y-192900000D03*
%TD*%
%TO.P,R11,1*%
%TO.N,Net-(U25-I4)*%
X427600000Y-221000000D03*
%TO.P,R11,2*%
%TO.N,Net-(J24-Pin_13)*%
X417440000Y-221000000D03*
%TD*%
%TO.P,R10,1*%
%TO.N,Net-(U25-I5)*%
X427600000Y-227100000D03*
%TO.P,R10,2*%
%TO.N,Net-(J24-Pin_16)*%
X417440000Y-227100000D03*
%TD*%
D28*
%TO.P,Q6,1,G*%
%TO.N,Net-(Q6-G)*%
X451900000Y-312100000D03*
D29*
%TO.P,Q6,2,C*%
%TO.N,Net-(J0_18-Pin_1)*%
X457350000Y-312100000D03*
%TO.P,Q6,3,E*%
%TO.N,Net-(J0_13-Pin_2)*%
X462800000Y-312100000D03*
%TD*%
D15*
%TO.P,J0_15,1,Pin_1*%
%TO.N,Net-(J0_15-Pin_1)*%
X326000000Y-245700000D03*
D16*
%TO.P,J0_15,2,Pin_2*%
%TO.N,unconnected-(J0_15-Pin_2-Pad2)*%
X326000000Y-240700000D03*
%TO.P,J0_15,3,Pin_3*%
%TO.N,Net-(D10-A)*%
X326000000Y-235700000D03*
%TD*%
D17*
%TO.P,R1,1*%
%TO.N,Net-(J25-Pin_13)*%
X370000000Y-202900000D03*
%TO.P,R1,2*%
%TO.N,Net-(J13-Pin_1)*%
X380160000Y-202900000D03*
%TD*%
D18*
%TO.P,R5,1*%
%TO.N,Net-(J0_18-Pin_2)*%
X470200000Y-302340000D03*
%TO.P,R5,2*%
%TO.N,Net-(J0_18-Pin_1)*%
X470200000Y-317580000D03*
%TD*%
D10*
%TO.P,D12,1,K*%
%TO.N,Net-(D12-K)*%
X446860000Y-236400000D03*
D11*
%TO.P,D12,2,A*%
%TO.N,Net-(D10-A)*%
X449400000Y-236400000D03*
%TD*%
D27*
%TO.P,U2,1*%
%TO.N,Net-(D2-K)*%
X359380000Y-210100000D03*
D17*
%TO.P,U2,2*%
%TO.N,Net-(J0_13-Pin_2)*%
X359380000Y-212640000D03*
%TO.P,U2,3*%
X367000000Y-212640000D03*
%TO.P,U2,4*%
%TO.N,Net-(J25-Pin_12)*%
X367000000Y-210100000D03*
%TD*%
%TO.P,C5,1*%
%TO.N,Net-(J0_5-Pin_2)*%
X338000000Y-268500000D03*
%TO.P,C5,2*%
%TO.N,Net-(J0_13-Pin_2)*%
X338000000Y-273500000D03*
%TD*%
D10*
%TO.P,D1,1,K*%
%TO.N,Net-(D1-K)*%
X356050000Y-203000000D03*
D11*
%TO.P,D1,2,A*%
%TO.N,Net-(D1-A)*%
X353510000Y-203000000D03*
%TD*%
D12*
%TO.P,J13,1,Pin_1*%
%TO.N,Net-(J13-Pin_1)*%
X385400000Y-318300000D03*
%TD*%
D15*
%TO.P,J0_2,1,Pin_1*%
%TO.N,Net-(J0_2-Pin_1)*%
X326000000Y-195300000D03*
D16*
%TO.P,J0_2,2,Pin_2*%
%TO.N,unconnected-(J0_2-Pin_2-Pad2)*%
X326000000Y-190300000D03*
%TO.P,J0_2,3,Pin_3*%
%TO.N,Net-(D10-A)*%
X326000000Y-185300000D03*
%TD*%
D15*
%TO.P,J0_13,1,Pin_1*%
%TO.N,Net-(J0_13-Pin_1)*%
X480300000Y-351000000D03*
D16*
%TO.P,J0_13,2,Pin_2*%
%TO.N,Net-(J0_13-Pin_2)*%
X480300000Y-346000000D03*
%TO.P,J0_13,3,Pin_3*%
%TO.N,Net-(J0_13-Pin_3)*%
X480300000Y-341000000D03*
%TD*%
D17*
%TO.P,R22,1*%
%TO.N,Net-(J0_13-Pin_3)*%
X477440000Y-331840000D03*
%TO.P,R22,2*%
%TO.N,Net-(U17--)*%
X467280000Y-331840000D03*
%TD*%
D27*
%TO.P,U4,1*%
%TO.N,Net-(D4-K)*%
X359380000Y-227400000D03*
D17*
%TO.P,U4,2*%
%TO.N,Net-(J0_13-Pin_2)*%
X359380000Y-229940000D03*
%TO.P,U4,3*%
X367000000Y-229940000D03*
%TO.P,U4,4*%
%TO.N,Net-(J25-Pin_14)*%
X367000000Y-227400000D03*
%TD*%
D15*
%TO.P,J0_7,1,Pin_1*%
%TO.N,Net-(J0_7-Pin_1)*%
X480300000Y-239000000D03*
D16*
%TO.P,J0_7,2,Pin_2*%
%TO.N,Net-(J0_7-Pin_2)*%
X480300000Y-234000000D03*
%TO.P,J0_7,3,Pin_3*%
%TO.N,Net-(J0_7-Pin_3)*%
X480300000Y-229000000D03*
%TD*%
D15*
%TO.P,J0_14,1,Pin_1*%
%TO.N,Net-(J0_14-Pin_1)*%
X480300000Y-297300000D03*
D16*
%TO.P,J0_14,2,Pin_2*%
%TO.N,Net-(J0_14-Pin_2)*%
X480300000Y-292300000D03*
%TO.P,J0_14,3,Pin_3*%
%TO.N,Net-(J0_13-Pin_2)*%
X480300000Y-287300000D03*
%TD*%
D17*
%TO.P,R21,1*%
%TO.N,Net-(U17--)*%
X463080000Y-333140000D03*
%TO.P,R21,2*%
%TO.N,Net-(J0_13-Pin_2)*%
X463080000Y-322980000D03*
%TD*%
%TO.P,R38,1*%
%TO.N,Net-(J25-Pin_11)*%
X371300000Y-251880000D03*
%TO.P,R38,2*%
%TO.N,Net-(J0_13-Pin_2)*%
X371300000Y-262040000D03*
%TD*%
D10*
%TO.P,D2,1,K*%
%TO.N,Net-(D2-K)*%
X356050000Y-211600000D03*
D11*
%TO.P,D2,2,A*%
%TO.N,Net-(D2-A)*%
X353510000Y-211600000D03*
%TD*%
D24*
%TO.P,J26,1,Pin_1*%
%TO.N,Net-(J24-Pin_12)*%
X386300000Y-257200000D03*
D25*
%TO.P,J26,2,Pin_2*%
%TO.N,Net-(J25-Pin_3)*%
X386300000Y-259740000D03*
%TO.P,J26,3,Pin_3*%
%TO.N,Net-(J24-Pin_10)*%
X386300000Y-262280000D03*
%TO.P,J26,4,Pin_4*%
%TO.N,Net-(J24-Pin_4)*%
X386300000Y-264820000D03*
%TO.P,J26,5,Pin_5*%
%TO.N,Net-(J13-Pin_1)*%
X386300000Y-267360000D03*
%TO.P,J26,6,Pin_6*%
%TO.N,unconnected-(J26-Pin_6-Pad6)*%
X386300000Y-269900000D03*
%TO.P,J26,7,Pin_7*%
%TO.N,Net-(J24-Pin_12)*%
X386300000Y-272440000D03*
%TO.P,J26,8,Pin_8*%
%TO.N,Net-(J24-Pin_9)*%
X386300000Y-274980000D03*
%TO.P,J26,9,Pin_9*%
%TO.N,Net-(J24-Pin_10)*%
X386300000Y-277520000D03*
%TO.P,J26,10,Pin_10*%
%TO.N,Net-(J24-Pin_4)*%
X386300000Y-280060000D03*
%TO.P,J26,11,Pin_11*%
%TO.N,Net-(J13-Pin_1)*%
X386300000Y-282600000D03*
%TO.P,J26,12,Pin_12*%
%TO.N,unconnected-(J26-Pin_12-Pad12)*%
X386300000Y-285140000D03*
%TO.P,J26,13,Pin_13*%
%TO.N,Net-(J24-Pin_12)*%
X386300000Y-287680000D03*
%TO.P,J26,14,Pin_14*%
%TO.N,Net-(J24-Pin_11)*%
X386300000Y-290220000D03*
%TO.P,J26,15,Pin_15*%
%TO.N,Net-(J24-Pin_10)*%
X386300000Y-292760000D03*
%TO.P,J26,16,Pin_16*%
%TO.N,Net-(J24-Pin_4)*%
X386300000Y-295300000D03*
%TO.P,J26,17,Pin_17*%
%TO.N,Net-(J13-Pin_1)*%
X386300000Y-297840000D03*
%TO.P,J26,18,Pin_18*%
%TO.N,unconnected-(J26-Pin_18-Pad18)*%
X386300000Y-300380000D03*
%TO.P,J26,19,Pin_19*%
%TO.N,unconnected-(J26-Pin_19-Pad19)*%
X386300000Y-302920000D03*
%TO.P,J26,20,Pin_20*%
%TO.N,unconnected-(J26-Pin_20-Pad20)*%
X386300000Y-305460000D03*
%TD*%
D17*
%TO.P,R2,1*%
%TO.N,Net-(J25-Pin_12)*%
X370000000Y-211300000D03*
%TO.P,R2,2*%
%TO.N,Net-(J13-Pin_1)*%
X380160000Y-211300000D03*
%TD*%
%TO.P,C6,1*%
%TO.N,Net-(J0_5-Pin_1)*%
X338000000Y-253500000D03*
%TO.P,C6,2*%
%TO.N,Net-(J0_13-Pin_2)*%
X338000000Y-258500000D03*
%TD*%
D12*
%TO.P,J14,1,Pin_1*%
%TO.N,Net-(J0_13-Pin_2)*%
X443000000Y-333300000D03*
%TD*%
D10*
%TO.P,D13,1,K*%
%TO.N,Net-(D13-K)*%
X446860000Y-254500000D03*
D11*
%TO.P,D13,2,A*%
%TO.N,Net-(D10-A)*%
X449400000Y-254500000D03*
%TD*%
D17*
%TO.P,C8,1*%
%TO.N,Net-(J25-Pin_9)*%
X456040000Y-336940000D03*
%TO.P,C8,2*%
%TO.N,Net-(J0_13-Pin_2)*%
X456040000Y-331940000D03*
%TD*%
%TO.P,R8,1*%
%TO.N,Net-(J0_12-Pin_1)*%
X335000000Y-220200000D03*
%TO.P,R8,2*%
%TO.N,Net-(D3-A)*%
X350240000Y-220200000D03*
%TD*%
D18*
%TO.P,K7,11*%
%TO.N,Net-(J0_9-Pin_2)*%
X466600000Y-190400000D03*
%TO.P,K7,12*%
%TO.N,Net-(J0_9-Pin_1)*%
X461560000Y-190400000D03*
%TO.P,K7,14*%
%TO.N,Net-(J0_9-Pin_3)*%
X471640000Y-190400000D03*
D19*
%TO.P,K7,A1*%
%TO.N,Net-(D10-K)*%
X446440000Y-190400000D03*
D20*
%TO.P,K7,A2*%
%TO.N,Net-(D10-A)*%
X450220000Y-190400000D03*
%TD*%
D12*
%TO.P,J15,1,Pin_1*%
%TO.N,Net-(J15-Pin_1)*%
X422000000Y-333300000D03*
%TD*%
D10*
%TO.P,D9,1,K*%
%TO.N,Net-(D9-K)*%
X446860000Y-180000000D03*
D11*
%TO.P,D9,2,A*%
%TO.N,Net-(D10-A)*%
X449400000Y-180000000D03*
%TD*%
D32*
%TO.P,Q2,1,E*%
%TO.N,Net-(J25-Pin_10)*%
X363300000Y-275500000D03*
D33*
%TO.P,Q2,2,B*%
%TO.N,Net-(Q2-B)*%
X364570000Y-274230000D03*
%TO.P,Q2,3,C*%
%TO.N,Net-(J13-Pin_1)*%
X365840000Y-275500000D03*
%TD*%
D17*
%TO.P,R7,1*%
%TO.N,Net-(J0_11-Pin_1)*%
X335000000Y-211600000D03*
%TO.P,R7,2*%
%TO.N,Net-(D2-A)*%
X350240000Y-211600000D03*
%TD*%
D27*
%TO.P,U3,1*%
%TO.N,Net-(D3-K)*%
X359380000Y-218700000D03*
D17*
%TO.P,U3,2*%
%TO.N,Net-(J0_13-Pin_2)*%
X359380000Y-221240000D03*
%TO.P,U3,3*%
X367000000Y-221240000D03*
%TO.P,U3,4*%
%TO.N,Net-(J25-Pin_17)*%
X367000000Y-218700000D03*
%TD*%
%TO.P,R4,1*%
%TO.N,Net-(J25-Pin_14)*%
X370000000Y-228600000D03*
%TO.P,R4,2*%
%TO.N,Net-(J13-Pin_1)*%
X380160000Y-228600000D03*
%TD*%
%TO.P,R9,1*%
%TO.N,Net-(U25-I6)*%
X427600000Y-233200000D03*
%TO.P,R9,2*%
%TO.N,Net-(J24-Pin_15)*%
X417440000Y-233200000D03*
%TD*%
D27*
%TO.P,U19,1,NC*%
%TO.N,unconnected-(U19-NC-Pad1)*%
X429980000Y-289700000D03*
D17*
%TO.P,U19,2,A*%
%TO.N,Net-(U19-A)*%
X429980000Y-292240000D03*
%TO.P,U19,3,C*%
%TO.N,Net-(J0_13-Pin_2)*%
X429980000Y-294780000D03*
%TO.P,U19,4,NC*%
%TO.N,unconnected-(U19-NC-Pad4)*%
X429980000Y-297320000D03*
%TO.P,U19,5,VEE*%
%TO.N,Net-(J15-Pin_1)*%
X437600000Y-297320000D03*
%TO.P,U19,6,VO*%
%TO.N,unconnected-(U19-VO-Pad6)*%
X437600000Y-294780000D03*
%TO.P,U19,7,VO*%
%TO.N,Net-(R25-Pad2)*%
X437600000Y-292240000D03*
%TO.P,U19,8,VCC*%
%TO.N,Net-(J8-Pin_1)*%
X437600000Y-289700000D03*
%TD*%
%TO.P,R15,1*%
%TO.N,Net-(Q2-B)*%
X365000000Y-268500000D03*
%TO.P,R15,2*%
%TO.N,Net-(U10--)*%
X354840000Y-268500000D03*
%TD*%
D18*
%TO.P,K9,11*%
%TO.N,Net-(J0_7-Pin_2)*%
X466600000Y-228000000D03*
%TO.P,K9,12*%
%TO.N,Net-(J0_7-Pin_1)*%
X461560000Y-228000000D03*
%TO.P,K9,14*%
%TO.N,Net-(J0_7-Pin_3)*%
X471640000Y-228000000D03*
D19*
%TO.P,K9,A1*%
%TO.N,Net-(D12-K)*%
X446440000Y-228000000D03*
D20*
%TO.P,K9,A2*%
%TO.N,Net-(D10-A)*%
X450220000Y-228000000D03*
%TD*%
D10*
%TO.P,D14,1,K*%
%TO.N,Net-(D14-K)*%
X446860000Y-273600000D03*
D11*
%TO.P,D14,2,A*%
%TO.N,Net-(D10-A)*%
X449400000Y-273600000D03*
%TD*%
D18*
%TO.P,K1,11*%
%TO.N,Net-(J0_4-Pin_2)*%
X466600000Y-265600000D03*
%TO.P,K1,12*%
%TO.N,Net-(J0_4-Pin_1)*%
X461560000Y-265600000D03*
%TO.P,K1,14*%
%TO.N,Net-(J0_4-Pin_3)*%
X471640000Y-265600000D03*
D19*
%TO.P,K1,A1*%
%TO.N,Net-(D14-K)*%
X446440000Y-265600000D03*
D20*
%TO.P,K1,A2*%
%TO.N,Net-(D10-A)*%
X450220000Y-265600000D03*
%TD*%
D12*
%TO.P,J10,1,Pin_1*%
%TO.N,Net-(J0_13-Pin_2)*%
X369100000Y-332100000D03*
%TD*%
D15*
%TO.P,J0_11,1,Pin_1*%
%TO.N,Net-(J0_11-Pin_1)*%
X326000000Y-212100000D03*
D16*
%TO.P,J0_11,2,Pin_2*%
%TO.N,unconnected-(J0_11-Pin_2-Pad2)*%
X326000000Y-207100000D03*
%TO.P,J0_11,3,Pin_3*%
%TO.N,Net-(D10-A)*%
X326000000Y-202100000D03*
%TD*%
D17*
%TO.P,R20,1*%
%TO.N,Net-(U15-A)*%
X424300000Y-314980000D03*
%TO.P,R20,2*%
%TO.N,Net-(J24-Pin_18)*%
X424300000Y-304820000D03*
%TD*%
D34*
%TO.N,Net-(J0_13-Pin_2)*%
X436203000Y-201270000D03*
%TO.N,Net-(J0_3-Pin_2)*%
X388980000Y-185174000D03*
%TO.N,Net-(J0_3-Pin_1)*%
X385912000Y-180347000D03*
%TO.N,Net-(J24-Pin_10)*%
X388770000Y-293932000D03*
%TO.N,Net-(J24-Pin_12)*%
X389418000Y-275268000D03*
X389341000Y-287900000D03*
%TO.N,Net-(J24-Pin_11)*%
X388130000Y-289050000D03*
%TO.N,Net-(J24-Pin_4)*%
X383135000Y-278113000D03*
%TO.N,Net-(J25-Pin_9)*%
X445153000Y-335844000D03*
X436021000Y-228172000D03*
%TO.N,Net-(J25-Pin_8)*%
X433244000Y-353610000D03*
X434567000Y-231161000D03*
%TO.N,Net-(J25-Pin_13)*%
X409355000Y-198629000D03*
%TO.N,Net-(J25-Pin_14)*%
X385013000Y-226943000D03*
X389360000Y-216216000D03*
%TO.N,Net-(J25-Pin_10)*%
X406258000Y-273370000D03*
%TO.N,Net-(J8-Pin_1)*%
X353953000Y-256182000D03*
X439531000Y-292600000D03*
X424370000Y-275998000D03*
X317871000Y-270020000D03*
X466059000Y-314580000D03*
%TO.N,Net-(J25-Pin_17)*%
X389360000Y-207248000D03*
X384883000Y-218693000D03*
%TO.N,Net-(J25-Pin_11)*%
X374078000Y-231161000D03*
%TO.N,Net-(J15-Pin_1)*%
X379995000Y-275998000D03*
X383186000Y-312251000D03*
%TO.N,Net-(J24-Pin_17)*%
X394786000Y-287954000D03*
%TO.N,Net-(J24-Pin_18)*%
X389360000Y-299911000D03*
%TO.N,Net-(J11-Pin_1)*%
X374078000Y-329802000D03*
%TD*%
D35*
%TO.N,Net-(D10-A)*%
X326000000Y-218900000D02*
X320400000Y-224500000D01*
X320400000Y-224500000D02*
X320400000Y-230100000D01*
X320400000Y-230100000D02*
X326000000Y-235700000D01*
X326000000Y-185300000D02*
X320600000Y-190700000D01*
X320600000Y-190700000D02*
X320600000Y-196700000D01*
X320600000Y-196700000D02*
X326000000Y-202100000D01*
X326000000Y-202100000D02*
X323600000Y-202100000D01*
X323600000Y-202100000D02*
X319500000Y-206200000D01*
X319500000Y-206200000D02*
X319500000Y-212400000D01*
X319500000Y-212400000D02*
X326000000Y-218900000D01*
D36*
%TO.N,Net-(J8-Pin_1)*%
X353953000Y-256182000D02*
X353200000Y-256935000D01*
X353200000Y-256935000D02*
X353200000Y-267800000D01*
X353200000Y-267800000D02*
X351400000Y-269600000D01*
X351400000Y-269600000D02*
X351400000Y-270230000D01*
%TO.N,Net-(J15-Pin_1)*%
X343460000Y-260310000D02*
X341500000Y-262270000D01*
X341500000Y-262270000D02*
X341500000Y-273350000D01*
X341500000Y-273350000D02*
X343460000Y-275310000D01*
D35*
%TO.N,Net-(J0_13-Pin_2)*%
X353482000Y-276591000D02*
X352273000Y-277800000D01*
X352273000Y-277800000D02*
X342300000Y-277800000D01*
X342300000Y-277800000D02*
X338000000Y-273500000D01*
%TO.N,Net-(J0_3-Pin_3)*%
X378524000Y-192900000D02*
X377022000Y-191398000D01*
X382452000Y-192900000D02*
X381400000Y-192900000D01*
X386300000Y-198300000D02*
X386300000Y-196748000D01*
X352398000Y-191398000D02*
X339100000Y-178100000D01*
X386300000Y-196748000D02*
X382452000Y-192900000D01*
X381400000Y-192900000D02*
X378524000Y-192900000D01*
X377022000Y-191398000D02*
X352398000Y-191398000D01*
%TO.N,Net-(J24-Pin_3)*%
X386300000Y-203380000D02*
X376400000Y-193480000D01*
X376400000Y-193480000D02*
X376400000Y-192900000D01*
%TO.N,Net-(J0_13-Pin_2)*%
X353482000Y-317900000D02*
X354900000Y-317900000D01*
X462800000Y-315052000D02*
X463080000Y-315332000D01*
X326000000Y-291000000D02*
X319100000Y-297900000D01*
X319100000Y-297900000D02*
X319100000Y-304300000D01*
D36*
X365100000Y-220420000D02*
X366180000Y-220420000D01*
D35*
X365100000Y-220420000D02*
X365920000Y-221240000D01*
X444360000Y-331940000D02*
X443000000Y-333300000D01*
X406400000Y-318300000D02*
X423172000Y-318300000D01*
X482316000Y-303884000D02*
X480300000Y-305900000D01*
X359380000Y-229940000D02*
X366185000Y-229940000D01*
D36*
X357786000Y-276591000D02*
X357786000Y-278706000D01*
D35*
X332700000Y-317900000D02*
X353482000Y-317900000D01*
D36*
X452045000Y-337325000D02*
X452045000Y-355745000D01*
D35*
X456040000Y-331940000D02*
X446660000Y-331940000D01*
X365920000Y-221240000D02*
X367000000Y-221240000D01*
X359380000Y-205020000D02*
X367000000Y-212640000D01*
X406400000Y-355500000D02*
X451800000Y-355500000D01*
X428890000Y-311950000D02*
X430480000Y-310360000D01*
X462800000Y-312100000D02*
X462800000Y-315052000D01*
X371300000Y-267040000D02*
X371300000Y-262040000D01*
X359380000Y-204040000D02*
X367000000Y-204040000D01*
X354900000Y-317900000D02*
X369100000Y-332100000D01*
D36*
X436203000Y-215700000D02*
X436203000Y-201270000D01*
D35*
X359380000Y-212640000D02*
X359380000Y-214700000D01*
X480300000Y-287300000D02*
X482316000Y-289316000D01*
D36*
X441222000Y-219282000D02*
X440450000Y-218510000D01*
D35*
X369100000Y-332100000D02*
X392600000Y-332100000D01*
D36*
X446660000Y-331940000D02*
X452045000Y-337325000D01*
X441222000Y-227400000D02*
X441222000Y-219282000D01*
D35*
X369100000Y-369900000D02*
X392000000Y-369900000D01*
X327060000Y-258500000D02*
X338000000Y-258500000D01*
X423172000Y-318300000D02*
X428890000Y-312582000D01*
X482316000Y-289316000D02*
X482316000Y-303884000D01*
X456040000Y-330020000D02*
X463080000Y-322980000D01*
D36*
X439013000Y-218510000D02*
X436203000Y-215700000D01*
X439720000Y-227400000D02*
X441222000Y-227400000D01*
D35*
X452045000Y-355745000D02*
X456040000Y-359740000D01*
X359380000Y-221240000D02*
X359380000Y-223135000D01*
D36*
X366180000Y-220420000D02*
X367000000Y-221240000D01*
D35*
X359380000Y-214700000D02*
X365100000Y-220420000D01*
X480300000Y-346000000D02*
X475520000Y-350780000D01*
D36*
X357786000Y-234937000D02*
X357786000Y-276591000D01*
D35*
X359380000Y-223135000D02*
X366185000Y-229940000D01*
X392600000Y-332100000D02*
X406400000Y-318300000D01*
X372841000Y-268581000D02*
X372841000Y-277806000D01*
D36*
X353482000Y-317900000D02*
X353482000Y-276591000D01*
D35*
X463080000Y-352700000D02*
X463080000Y-350780000D01*
X456040000Y-331940000D02*
X456040000Y-330020000D01*
X475520000Y-350780000D02*
X463080000Y-350780000D01*
X446660000Y-331940000D02*
X444360000Y-331940000D01*
X366185000Y-229940000D02*
X367000000Y-229940000D01*
X357786000Y-276591000D02*
X353482000Y-276591000D01*
X371941000Y-278706000D02*
X357786000Y-278706000D01*
X319100000Y-304300000D02*
X332700000Y-317900000D01*
D36*
X440450000Y-218510000D02*
X439013000Y-218510000D01*
D35*
X416100000Y-192900000D02*
X411700000Y-197300000D01*
X463080000Y-315332000D02*
X463080000Y-322980000D01*
X428890000Y-312582000D02*
X428890000Y-311950000D01*
X359380000Y-212640000D02*
X367000000Y-212640000D01*
X456040000Y-359740000D02*
X463080000Y-352700000D01*
X326000000Y-257440000D02*
X327060000Y-258500000D01*
X371300000Y-267040000D02*
X372841000Y-268581000D01*
X360100000Y-360900000D02*
X369100000Y-369900000D01*
X451800000Y-355500000D02*
X452045000Y-355745000D01*
D36*
X362783000Y-229940000D02*
X357786000Y-234937000D01*
D35*
X359380000Y-221240000D02*
X365920000Y-221240000D01*
X372841000Y-277806000D02*
X371941000Y-278706000D01*
X392000000Y-369900000D02*
X406400000Y-355500000D01*
X359380000Y-204040000D02*
X359380000Y-205020000D01*
X332700000Y-360900000D02*
X360100000Y-360900000D01*
X411700000Y-197300000D02*
X411700000Y-198340000D01*
%TO.N,Net-(J25-Pin_18)*%
X421100000Y-192900000D02*
X421100000Y-194020000D01*
X421100000Y-194020000D02*
X411700000Y-203420000D01*
%TO.N,Net-(J0_1-Pin_1)*%
X364300000Y-178100000D02*
X364000000Y-178400000D01*
X369300000Y-178100000D02*
X364300000Y-178100000D01*
X363700000Y-178100000D02*
X364000000Y-178400000D01*
X359300000Y-178100000D02*
X363700000Y-178100000D01*
D36*
%TO.N,Net-(J0_3-Pin_2)*%
X388980000Y-206346000D02*
X388105000Y-207221000D01*
X388980000Y-185174000D02*
X388980000Y-206346000D01*
X388105000Y-209195000D02*
X386300000Y-211000000D01*
X388105000Y-207221000D02*
X388105000Y-209195000D01*
%TO.N,Net-(J0_3-Pin_1)*%
X387676000Y-195806000D02*
X387512000Y-195641000D01*
X387512000Y-195641000D02*
X387512000Y-181947000D01*
X387676000Y-195806000D02*
X387512000Y-195641000D01*
X387912000Y-206846000D02*
X386300000Y-208458000D01*
X386300000Y-208458000D02*
X386300000Y-208460000D01*
X387512000Y-181947000D02*
X385912000Y-180347000D01*
X387912000Y-196042000D02*
X387912000Y-206846000D01*
X387676000Y-195806000D02*
X387912000Y-196042000D01*
D35*
%TO.N,Net-(J0_14-Pin_2)*%
X480300000Y-292300000D02*
X471740000Y-283740000D01*
X471740000Y-283740000D02*
X470200000Y-283740000D01*
%TO.N,Net-(J0_5-Pin_2)*%
X331940000Y-262440000D02*
X338000000Y-268500000D01*
X326000000Y-262440000D02*
X331940000Y-262440000D01*
D36*
%TO.N,Net-(J24-Pin_10)*%
X386300000Y-277520000D02*
X388740000Y-279960000D01*
X386300000Y-262280000D02*
X387866000Y-263846000D01*
X387866000Y-275954000D02*
X386300000Y-277520000D01*
X387866000Y-263846000D02*
X387866000Y-275954000D01*
X386300000Y-221160000D02*
X384010000Y-223450000D01*
X384010000Y-259817000D02*
X386300000Y-262107000D01*
X388740000Y-293902000D02*
X388770000Y-293932000D01*
X384010000Y-223450000D02*
X384010000Y-259817000D01*
X386300000Y-262107000D02*
X386300000Y-262280000D01*
X388740000Y-279960000D02*
X388740000Y-293902000D01*
%TO.N,Net-(J24-Pin_12)*%
X389418000Y-261182000D02*
X389418000Y-275268000D01*
X389418000Y-275268000D02*
X389418000Y-287823000D01*
X386588000Y-258352000D02*
X389418000Y-261182000D01*
X384747000Y-254495000D02*
X386300000Y-256048000D01*
X386300000Y-258352000D02*
X386588000Y-258352000D01*
X386300000Y-226507000D02*
X384747000Y-228061000D01*
X386300000Y-226240000D02*
X386300000Y-226507000D01*
X389418000Y-287823000D02*
X389341000Y-287900000D01*
X384747000Y-228061000D02*
X384747000Y-254495000D01*
X386300000Y-256048000D02*
X386300000Y-257200000D01*
X386300000Y-257200000D02*
X386300000Y-258352000D01*
D35*
%TO.N,Net-(D9-K)*%
X446440000Y-171600000D02*
X446440000Y-177978000D01*
X446860000Y-180000000D02*
X445258000Y-180000000D01*
X446440000Y-177978000D02*
X446860000Y-178398000D01*
X441622000Y-183637000D02*
X441622000Y-207080000D01*
X445258000Y-180000000D02*
X441622000Y-183637000D01*
X446860000Y-178398000D02*
X446860000Y-180000000D01*
X439720000Y-207080000D02*
X441622000Y-207080000D01*
D36*
%TO.N,Net-(J24-Pin_11)*%
X388130000Y-289050000D02*
X388130000Y-294203000D01*
X390021000Y-252336000D02*
X385148000Y-247462000D01*
X388479000Y-294552000D02*
X389061000Y-294552000D01*
X385905000Y-237670000D02*
X386677000Y-237670000D01*
X387500000Y-236847000D02*
X387500000Y-224900000D01*
X386677000Y-237670000D02*
X387500000Y-236847000D01*
X385148000Y-247462000D02*
X385148000Y-238426000D01*
X388130000Y-294203000D02*
X388479000Y-294552000D01*
X390021000Y-293592000D02*
X390021000Y-252336000D01*
X387500000Y-224900000D02*
X386300000Y-223700000D01*
X385148000Y-238426000D02*
X385905000Y-237670000D01*
X389061000Y-294552000D02*
X390021000Y-293592000D01*
D35*
%TO.N,Net-(D10-A)*%
X450220000Y-253680000D02*
X450220000Y-246800000D01*
X449400000Y-217600000D02*
X449400000Y-227180000D01*
X449400000Y-236400000D02*
X450220000Y-235580000D01*
X309481000Y-252219000D02*
X309481000Y-358681000D01*
X449400000Y-199600000D02*
X449400000Y-208380000D01*
X320700000Y-369900000D02*
X311700000Y-360900000D01*
X450220000Y-171600000D02*
X450220000Y-179180000D01*
X450220000Y-190400000D02*
X450220000Y-198780000D01*
X326000000Y-235700000D02*
X309481000Y-252219000D01*
X449400000Y-208380000D02*
X450220000Y-209200000D01*
X450220000Y-216780000D02*
X449400000Y-217600000D01*
X450220000Y-272780000D02*
X450220000Y-265600000D01*
X449400000Y-189580000D02*
X450220000Y-190400000D01*
X449400000Y-245980000D02*
X450220000Y-246800000D01*
X450220000Y-235580000D02*
X450220000Y-228000000D01*
X309481000Y-358681000D02*
X311700000Y-360900000D01*
X449400000Y-227180000D02*
X450220000Y-228000000D01*
X348100000Y-369900000D02*
X320700000Y-369900000D01*
X449400000Y-254500000D02*
X449400000Y-264780000D01*
X450220000Y-198780000D02*
X449400000Y-199600000D01*
X449400000Y-254500000D02*
X450220000Y-253680000D01*
X450220000Y-209200000D02*
X450220000Y-216780000D01*
X449400000Y-236400000D02*
X449400000Y-245980000D01*
X449400000Y-264780000D02*
X450220000Y-265600000D01*
X450220000Y-179180000D02*
X449400000Y-180000000D01*
X449400000Y-273600000D02*
X450220000Y-272780000D01*
X449400000Y-180000000D02*
X449400000Y-189580000D01*
%TO.N,Net-(D10-K)*%
X446440000Y-190400000D02*
X446440000Y-197578000D01*
X446860000Y-204382000D02*
X441622000Y-209620000D01*
X439720000Y-209620000D02*
X441622000Y-209620000D01*
X446440000Y-197578000D02*
X446860000Y-197998000D01*
X446860000Y-201202000D02*
X446860000Y-204382000D01*
X446860000Y-199600000D02*
X446860000Y-201202000D01*
X446860000Y-199600000D02*
X446860000Y-197998000D01*
D36*
%TO.N,Net-(J24-Pin_9)*%
X383442000Y-228883000D02*
X383606000Y-229048000D01*
X387463000Y-273817000D02*
X386300000Y-274980000D01*
X383946000Y-260321000D02*
X383946000Y-261620000D01*
X383442000Y-228883000D02*
X383606000Y-229048000D01*
X383206000Y-221714000D02*
X383206000Y-228648000D01*
X386777000Y-263668000D02*
X387463000Y-264354000D01*
X385994000Y-263668000D02*
X386777000Y-263668000D01*
X383843000Y-260218000D02*
X383946000Y-260321000D01*
X383946000Y-261620000D02*
X385994000Y-263668000D01*
X383843000Y-260218000D02*
X383946000Y-260321000D01*
X383606000Y-229048000D02*
X383606000Y-259982000D01*
X386300000Y-218620000D02*
X383206000Y-221714000D01*
X383606000Y-259982000D02*
X383843000Y-260218000D01*
X387463000Y-264354000D02*
X387463000Y-273817000D01*
X383206000Y-228648000D02*
X383442000Y-228883000D01*
%TO.N,Net-(J24-Pin_4)*%
X383204000Y-278044000D02*
X383204000Y-261725000D01*
X383205000Y-229214000D02*
X383205000Y-261725000D01*
X383205000Y-261725000D02*
X386300000Y-264820000D01*
X382804000Y-209416000D02*
X382804000Y-228814000D01*
X383204000Y-261725000D02*
X383205000Y-261725000D01*
X383135000Y-278113000D02*
X383204000Y-278044000D01*
X386300000Y-295300000D02*
X387521000Y-294079000D01*
X387521000Y-294079000D02*
X387521000Y-281281000D01*
X386300000Y-205920000D02*
X382804000Y-209416000D01*
X382804000Y-228814000D02*
X383205000Y-229214000D01*
X387521000Y-281281000D02*
X386300000Y-280060000D01*
D35*
%TO.N,Net-(J7-Pin_1)*%
X326000000Y-301000000D02*
X348100000Y-301000000D01*
%TO.N,Net-(J25-Pin_9)*%
X456040000Y-336940000D02*
X461500000Y-342400000D01*
D36*
X443466000Y-329676000D02*
X441146000Y-331997000D01*
X442957000Y-335844000D02*
X445153000Y-335844000D01*
X436021000Y-228172000D02*
X436021000Y-279654000D01*
X441146000Y-331997000D02*
X441146000Y-334033000D01*
X436021000Y-279654000D02*
X443466000Y-287099000D01*
X441146000Y-334033000D02*
X442957000Y-335844000D01*
X443466000Y-287099000D02*
X443466000Y-329676000D01*
D35*
X461500000Y-342400000D02*
X462900000Y-342400000D01*
%TO.N,Net-(D11-K)*%
X446440000Y-209200000D02*
X444738000Y-209200000D01*
X444738000Y-209200000D02*
X441778000Y-212160000D01*
X446860000Y-215998000D02*
X446860000Y-217600000D01*
X441778000Y-212160000D02*
X439720000Y-212160000D01*
X446440000Y-215578000D02*
X446860000Y-215998000D01*
X446440000Y-209200000D02*
X446440000Y-215578000D01*
D36*
%TO.N,Net-(J25-Pin_8)*%
X434567000Y-231161000D02*
X434567000Y-278839000D01*
X433244000Y-337395000D02*
X433244000Y-353610000D01*
D35*
X456040000Y-364740000D02*
X461500000Y-370200000D01*
X461500000Y-370200000D02*
X462900000Y-370200000D01*
D36*
X434567000Y-278839000D02*
X443065000Y-287336000D01*
X443065000Y-327575000D02*
X433244000Y-337395000D01*
X443065000Y-287336000D02*
X443065000Y-327575000D01*
D35*
%TO.N,Net-(J25-Pin_13)*%
X367000000Y-201500000D02*
X368600000Y-201500000D01*
D36*
X411700000Y-216120000D02*
X409355000Y-213775000D01*
X409355000Y-213775000D02*
X409355000Y-198629000D01*
D35*
X368600000Y-201500000D02*
X370000000Y-202900000D01*
%TO.N,Net-(J0_13-Pin_1)*%
X480300000Y-351000000D02*
X480300000Y-356780000D01*
X477440000Y-363600000D02*
X470840000Y-370200000D01*
X480300000Y-356780000D02*
X477440000Y-359640000D01*
X477440000Y-359640000D02*
X477440000Y-363600000D01*
%TO.N,Net-(J25-Pin_12)*%
X367000000Y-210100000D02*
X368800000Y-210100000D01*
X368800000Y-210100000D02*
X370000000Y-211300000D01*
%TO.N,Net-(J0_5-Pin_1)*%
X323959000Y-265399000D02*
X323959000Y-256649000D01*
X327108000Y-253500000D02*
X338000000Y-253500000D01*
X326000000Y-267440000D02*
X323959000Y-265399000D01*
X323959000Y-256649000D02*
X327108000Y-253500000D01*
%TO.N,Net-(D12-K)*%
X444354000Y-217432000D02*
X441622000Y-214700000D01*
X441622000Y-214700000D02*
X439720000Y-214700000D01*
X446440000Y-226298000D02*
X444354000Y-224212000D01*
X446860000Y-234798000D02*
X446440000Y-234378000D01*
X446440000Y-234378000D02*
X446440000Y-228000000D01*
X446440000Y-228000000D02*
X446440000Y-226298000D01*
X444354000Y-224212000D02*
X444354000Y-217432000D01*
X446860000Y-236400000D02*
X446860000Y-234798000D01*
%TO.N,Net-(D13-K)*%
X446860000Y-252898000D02*
X446440000Y-252478000D01*
X442706000Y-244768000D02*
X442706000Y-218325000D01*
X441622000Y-217240000D02*
X439720000Y-217240000D01*
X446440000Y-252478000D02*
X446440000Y-246800000D01*
X444738000Y-246800000D02*
X442706000Y-244768000D01*
X442706000Y-218325000D02*
X441622000Y-217240000D01*
X446860000Y-254500000D02*
X446860000Y-252898000D01*
X446440000Y-246800000D02*
X444738000Y-246800000D01*
%TO.N,Net-(J25-Pin_14)*%
X367000000Y-227400000D02*
X368800000Y-227400000D01*
D36*
X389360000Y-216216000D02*
X389360000Y-219747000D01*
D35*
X368800000Y-227400000D02*
X370000000Y-228600000D01*
D36*
X385934000Y-222430000D02*
X385013000Y-223351000D01*
X389360000Y-219747000D02*
X386678000Y-222430000D01*
X385013000Y-223351000D02*
X385013000Y-226943000D01*
X386678000Y-222430000D02*
X385934000Y-222430000D01*
D35*
%TO.N,Net-(J25-Pin_10)*%
X370195000Y-277200000D02*
X371300000Y-277200000D01*
D36*
X411700000Y-223740000D02*
X406258000Y-229182000D01*
D35*
X361948000Y-276442000D02*
X362362000Y-276857000D01*
X363300000Y-275500000D02*
X361948000Y-275500000D01*
X361948000Y-275500000D02*
X361948000Y-276442000D01*
D36*
X406258000Y-229182000D02*
X406258000Y-273370000D01*
X370195000Y-277200000D02*
X370195000Y-276857000D01*
D35*
X362362000Y-276857000D02*
X370195000Y-276857000D01*
%TO.N,Net-(D1-K)*%
X357652000Y-203000000D02*
X359152000Y-201500000D01*
X359152000Y-201500000D02*
X359380000Y-201500000D01*
X356050000Y-203000000D02*
X357652000Y-203000000D01*
%TO.N,Net-(D1-A)*%
X350240000Y-203000000D02*
X353510000Y-203000000D01*
%TO.N,Net-(D2-A)*%
X350240000Y-211600000D02*
X353510000Y-211600000D01*
%TO.N,Net-(D2-K)*%
X356050000Y-211600000D02*
X357652000Y-211600000D01*
X357652000Y-211600000D02*
X359152000Y-210100000D01*
X359152000Y-210100000D02*
X359380000Y-210100000D01*
%TO.N,Net-(D3-A)*%
X350240000Y-220200000D02*
X353510000Y-220200000D01*
%TO.N,Net-(D3-K)*%
X356050000Y-220200000D02*
X357652000Y-220200000D01*
X359152000Y-218700000D02*
X359380000Y-218700000D01*
X357652000Y-220200000D02*
X359152000Y-218700000D01*
%TO.N,Net-(D4-K)*%
X359152000Y-227400000D02*
X359380000Y-227400000D01*
X356050000Y-228900000D02*
X357652000Y-228900000D01*
X357652000Y-228900000D02*
X359152000Y-227400000D01*
%TO.N,Net-(D4-A)*%
X350240000Y-228900000D02*
X353510000Y-228900000D01*
D36*
%TO.N,Net-(J8-Pin_1)*%
X430598000Y-227400000D02*
X424370000Y-233629000D01*
X432100000Y-227400000D02*
X430598000Y-227400000D01*
X468700000Y-337720000D02*
X468700000Y-331579000D01*
X424370000Y-233629000D02*
X424370000Y-275998000D01*
X311700000Y-276190000D02*
X311700000Y-317900000D01*
X439531000Y-303849000D02*
X438100000Y-305280000D01*
X470840000Y-339860000D02*
X468700000Y-337720000D01*
X317871000Y-270020000D02*
X311700000Y-276190000D01*
X468700000Y-331579000D02*
X466059000Y-328938000D01*
X466059000Y-328938000D02*
X466059000Y-314580000D01*
X439531000Y-292600000D02*
X439531000Y-303849000D01*
D35*
%TO.N,Net-(J0_2-Pin_1)*%
X327300000Y-195300000D02*
X326000000Y-195300000D01*
X335000000Y-203000000D02*
X327300000Y-195300000D01*
%TO.N,Net-(J0_11-Pin_1)*%
X326500000Y-211600000D02*
X326000000Y-212100000D01*
X335000000Y-211600000D02*
X326500000Y-211600000D01*
D36*
%TO.N,Net-(J25-Pin_17)*%
X389360000Y-212167000D02*
X386836000Y-214692000D01*
X384883000Y-215800000D02*
X384883000Y-218693000D01*
X386836000Y-214692000D02*
X385992000Y-214692000D01*
D35*
X368800000Y-218700000D02*
X370000000Y-219900000D01*
X367000000Y-218700000D02*
X368800000Y-218700000D01*
D36*
X389360000Y-207248000D02*
X389360000Y-212167000D01*
X385992000Y-214692000D02*
X384883000Y-215800000D01*
%TO.N,Net-(J25-Pin_11)*%
X374078000Y-231161000D02*
X371300000Y-233940000D01*
X371300000Y-233940000D02*
X371300000Y-251880000D01*
D35*
X363300000Y-260500000D02*
X361948000Y-260500000D01*
X361948000Y-260500000D02*
X361948000Y-254356000D01*
X361948000Y-254356000D02*
X364424000Y-251880000D01*
X364424000Y-251880000D02*
X371300000Y-251880000D01*
%TO.N,Net-(Q1-B)*%
X365000000Y-258800000D02*
X364570000Y-259230000D01*
X365000000Y-253500000D02*
X365000000Y-258800000D01*
%TO.N,Net-(J13-Pin_1)*%
X385400000Y-318300000D02*
X384714000Y-317614000D01*
X380160000Y-202900000D02*
X380160000Y-228600000D01*
X366541000Y-274799000D02*
X365840000Y-275500000D01*
X384725000Y-281025000D02*
X384725000Y-268935000D01*
X384714000Y-317614000D02*
X384714000Y-299426000D01*
X365840000Y-260500000D02*
X366541000Y-261201000D01*
X386300000Y-297840000D02*
X384730000Y-296270000D01*
X384730000Y-296270000D02*
X384730000Y-284170000D01*
X384730000Y-284170000D02*
X386300000Y-282600000D01*
X384725000Y-268935000D02*
X386300000Y-267360000D01*
X386300000Y-282600000D02*
X384725000Y-281025000D01*
X380160000Y-228600000D02*
X380160000Y-246180000D01*
X366541000Y-261201000D02*
X366541000Y-274799000D01*
X380160000Y-246180000D02*
X365840000Y-260500000D01*
X384714000Y-299426000D02*
X386300000Y-297840000D01*
%TO.N,Net-(Q2-B)*%
X365000000Y-273800000D02*
X364570000Y-274230000D01*
X365000000Y-268500000D02*
X365000000Y-273800000D01*
%TO.N,Net-(U9--)*%
X354840000Y-253500000D02*
X354840000Y-253878000D01*
X346000000Y-257770000D02*
X351400000Y-257770000D01*
X354840000Y-253878000D02*
X351400000Y-257318000D01*
X351400000Y-257318000D02*
X351400000Y-257770000D01*
X343460000Y-255230000D02*
X346000000Y-257770000D01*
%TO.N,Net-(U10--)*%
X354840000Y-268500000D02*
X354840000Y-269330000D01*
X343460000Y-270230000D02*
X346000000Y-272770000D01*
X354840000Y-269330000D02*
X351400000Y-272770000D01*
X346000000Y-272770000D02*
X351400000Y-272770000D01*
D36*
%TO.N,Net-(J15-Pin_1)*%
X379995000Y-275998000D02*
X383186000Y-279189000D01*
D35*
X422000000Y-329000000D02*
X437650000Y-313350000D01*
D36*
X436927000Y-297993000D02*
X437600000Y-297320000D01*
X383186000Y-279189000D02*
X383186000Y-312251000D01*
X436927000Y-312627000D02*
X436927000Y-297993000D01*
X437650000Y-313350000D02*
X436927000Y-312627000D01*
D35*
X437650000Y-313350000D02*
X438100000Y-312900000D01*
X422000000Y-333300000D02*
X422000000Y-329000000D01*
%TO.N,Net-(D14-K)*%
X446440000Y-265600000D02*
X444738000Y-265600000D01*
X444738000Y-265600000D02*
X437818000Y-258680000D01*
X446860000Y-273600000D02*
X446860000Y-271998000D01*
X446440000Y-271578000D02*
X446440000Y-265600000D01*
X439720000Y-219780000D02*
X437818000Y-219780000D01*
X446860000Y-271998000D02*
X446440000Y-271578000D01*
X437818000Y-258680000D02*
X437818000Y-219780000D01*
%TO.N,Net-(J0_4-Pin_2)*%
X472600000Y-271600000D02*
X480300000Y-271600000D01*
X466600000Y-265600000D02*
X472600000Y-271600000D01*
%TO.N,Net-(J0_4-Pin_1)*%
X472560000Y-276600000D02*
X480300000Y-276600000D01*
X461560000Y-265600000D02*
X472560000Y-276600000D01*
%TO.N,Net-(J0_4-Pin_3)*%
X471640000Y-265600000D02*
X479300000Y-265600000D01*
X479300000Y-265600000D02*
X480300000Y-266600000D01*
%TO.N,Net-(J0_6-Pin_3)*%
X471640000Y-246800000D02*
X479300000Y-246800000D01*
X479300000Y-246800000D02*
X480300000Y-247800000D01*
%TO.N,Net-(J0_6-Pin_1)*%
X461560000Y-246800000D02*
X472560000Y-257800000D01*
X472560000Y-257800000D02*
X480300000Y-257800000D01*
%TO.N,Net-(J0_6-Pin_2)*%
X472600000Y-252800000D02*
X480300000Y-252800000D01*
X466600000Y-246800000D02*
X472600000Y-252800000D01*
%TO.N,Net-(J0_7-Pin_1)*%
X472560000Y-239000000D02*
X480300000Y-239000000D01*
X461560000Y-228000000D02*
X472560000Y-239000000D01*
%TO.N,Net-(J0_7-Pin_2)*%
X472600000Y-234000000D02*
X480300000Y-234000000D01*
X466600000Y-228000000D02*
X472600000Y-234000000D01*
%TO.N,Net-(J0_7-Pin_3)*%
X479300000Y-228000000D02*
X480300000Y-229000000D01*
X471640000Y-228000000D02*
X479300000Y-228000000D01*
%TO.N,Net-(J0_8-Pin_3)*%
X471640000Y-209200000D02*
X479300000Y-209200000D01*
X479300000Y-209200000D02*
X480300000Y-210200000D01*
%TO.N,Net-(J0_8-Pin_2)*%
X472600000Y-215200000D02*
X480300000Y-215200000D01*
X466600000Y-209200000D02*
X472600000Y-215200000D01*
%TO.N,Net-(J0_8-Pin_1)*%
X461560000Y-209200000D02*
X472560000Y-220200000D01*
X472560000Y-220200000D02*
X480300000Y-220200000D01*
%TO.N,Net-(J0_9-Pin_2)*%
X466600000Y-190400000D02*
X472600000Y-196400000D01*
X472600000Y-196400000D02*
X480300000Y-196400000D01*
%TO.N,Net-(J0_9-Pin_1)*%
X472560000Y-201400000D02*
X480300000Y-201400000D01*
X461560000Y-190400000D02*
X472560000Y-201400000D01*
%TO.N,Net-(J0_9-Pin_3)*%
X479300000Y-190400000D02*
X480300000Y-191400000D01*
X471640000Y-190400000D02*
X479300000Y-190400000D01*
%TO.N,Net-(J0_10-Pin_1)*%
X472560000Y-182600000D02*
X480300000Y-182600000D01*
X461560000Y-171600000D02*
X472560000Y-182600000D01*
%TO.N,Net-(J0_10-Pin_3)*%
X479300000Y-171600000D02*
X480300000Y-172600000D01*
X471640000Y-171600000D02*
X479300000Y-171600000D01*
%TO.N,Net-(J0_10-Pin_2)*%
X472600000Y-177600000D02*
X480300000Y-177600000D01*
X466600000Y-171600000D02*
X472600000Y-177600000D01*
D36*
%TO.N,Net-(J25-Pin_4)*%
X418592000Y-230333000D02*
X413090000Y-235835000D01*
X418592000Y-209952000D02*
X418592000Y-230333000D01*
X413090000Y-235835000D02*
X413090000Y-237590000D01*
X417440000Y-208800000D02*
X418592000Y-209952000D01*
X413090000Y-237590000D02*
X411700000Y-238980000D01*
%TO.N,Net-(J25-Pin_5)*%
X417440000Y-214900000D02*
X414755000Y-217585000D01*
X414755000Y-217585000D02*
X414755000Y-233385000D01*
X414755000Y-233385000D02*
X411700000Y-236440000D01*
%TO.N,Net-(J25-Pin_6)*%
X411700000Y-233900000D02*
X413336000Y-232264000D01*
X413336000Y-206804000D02*
X417440000Y-202700000D01*
X413336000Y-232264000D02*
X413336000Y-206804000D01*
D35*
%TO.N,Net-(U25-I6)*%
X434002000Y-219780000D02*
X434002000Y-228022000D01*
X434002000Y-228022000D02*
X428824000Y-233200000D01*
X428824000Y-233200000D02*
X427600000Y-233200000D01*
X432100000Y-219780000D02*
X434002000Y-219780000D01*
%TO.N,Net-(U25-I5)*%
X430198000Y-224502000D02*
X427600000Y-227100000D01*
X432100000Y-217240000D02*
X430198000Y-217240000D01*
X430198000Y-217240000D02*
X430198000Y-224502000D01*
%TO.N,Net-(U25-I4)*%
X432100000Y-214700000D02*
X430198000Y-214700000D01*
X427600000Y-217298000D02*
X427600000Y-221000000D01*
X430198000Y-214700000D02*
X427600000Y-217298000D01*
%TO.N,Net-(U25-I3)*%
X430198000Y-212160000D02*
X430198000Y-212302000D01*
X430198000Y-212302000D02*
X427600000Y-214900000D01*
X432100000Y-212160000D02*
X430198000Y-212160000D01*
%TO.N,Net-(U25-I2)*%
X429378000Y-208800000D02*
X427600000Y-208800000D01*
X430198000Y-209620000D02*
X429378000Y-208800000D01*
X432100000Y-209620000D02*
X430198000Y-209620000D01*
%TO.N,Net-(U25-I1)*%
X427720000Y-202700000D02*
X427600000Y-202700000D01*
X432100000Y-207080000D02*
X427720000Y-202700000D01*
%TO.N,Net-(J0_14-Pin_1)*%
X459102000Y-296520000D02*
X457150000Y-296520000D01*
X459102000Y-296181000D02*
X459102000Y-296520000D01*
X471880000Y-297300000D02*
X470200000Y-298980000D01*
X470200000Y-298980000D02*
X464764000Y-293544000D01*
X464764000Y-293544000D02*
X461738000Y-293544000D01*
X480300000Y-297300000D02*
X471880000Y-297300000D01*
X461738000Y-293544000D02*
X459102000Y-296181000D01*
%TO.N,Net-(J0_18-Pin_2)*%
X480300000Y-310900000D02*
X471740000Y-302340000D01*
X471740000Y-302340000D02*
X470200000Y-302340000D01*
D36*
%TO.N,Net-(J24-Pin_17)*%
X394786000Y-247426000D02*
X386300000Y-238940000D01*
X394786000Y-287954000D02*
X394786000Y-247426000D01*
%TO.N,Net-(J24-Pin_18)*%
X389360000Y-299911000D02*
X390423000Y-298848000D01*
X390423000Y-245603000D02*
X386300000Y-241480000D01*
X390423000Y-298848000D02*
X390423000Y-245603000D01*
D35*
%TO.N,Net-(Q6-G)*%
X452060000Y-303860000D02*
X451900000Y-304020000D01*
X451900000Y-304020000D02*
X451900000Y-312100000D01*
%TO.N,Net-(Q7-G)*%
X451700000Y-288680000D02*
X451700000Y-296520000D01*
X452100000Y-288280000D02*
X451700000Y-288680000D01*
%TO.N,Net-(R19-Pad2)*%
X438100000Y-307660000D02*
X438100000Y-307820000D01*
X441900000Y-303860000D02*
X438100000Y-307660000D01*
%TO.N,Net-(U15-A)*%
X424300000Y-314980000D02*
X424300000Y-314000000D01*
X424300000Y-314000000D02*
X430480000Y-307820000D01*
%TO.N,Net-(R25-Pad2)*%
X441940000Y-288280000D02*
X437980000Y-292240000D01*
X437980000Y-292240000D02*
X437600000Y-292240000D01*
%TO.N,Net-(U19-A)*%
X424300000Y-299400000D02*
X424300000Y-297920000D01*
X424300000Y-297920000D02*
X429980000Y-292240000D01*
%TO.N,Net-(J0_13-Pin_3)*%
X480300000Y-341000000D02*
X478900000Y-342400000D01*
X478900000Y-342400000D02*
X470840000Y-342400000D01*
X480300000Y-334700000D02*
X477440000Y-331840000D01*
X480300000Y-341000000D02*
X480300000Y-334700000D01*
%TO.N,Net-(U17--)*%
X461620000Y-338580000D02*
X462900000Y-339860000D01*
X467280000Y-331840000D02*
X464380000Y-331840000D01*
X463080000Y-333140000D02*
X461620000Y-334600000D01*
X464380000Y-331840000D02*
X463080000Y-333140000D01*
X461620000Y-334600000D02*
X461620000Y-338580000D01*
%TO.N,Net-(U18--)*%
X461620000Y-362400000D02*
X461620000Y-366380000D01*
X463080000Y-360940000D02*
X461620000Y-362400000D01*
X464380000Y-359640000D02*
X463080000Y-360940000D01*
X467280000Y-359640000D02*
X464380000Y-359640000D01*
X461620000Y-366380000D02*
X462900000Y-367660000D01*
%TO.N,Net-(J0_12-Pin_1)*%
X326300000Y-228900000D02*
X326000000Y-228900000D01*
X335000000Y-220200000D02*
X326300000Y-228900000D01*
%TO.N,Net-(J0_15-Pin_1)*%
X335000000Y-228900000D02*
X335000000Y-236700000D01*
X335000000Y-236700000D02*
X326000000Y-245700000D01*
D36*
%TO.N,Net-(J11-Pin_1)*%
X382403000Y-228980000D02*
X382638000Y-229216000D01*
X382403000Y-208120000D02*
X382403000Y-228980000D01*
X386667000Y-204650000D02*
X385873000Y-204650000D01*
X385873000Y-204650000D02*
X382403000Y-208120000D01*
X382803000Y-256814000D02*
X374078000Y-265538000D01*
X374078000Y-265538000D02*
X374078000Y-329802000D01*
X382638000Y-229216000D02*
X382803000Y-229380000D01*
X387460000Y-203857000D02*
X386667000Y-204650000D01*
X387460000Y-202000000D02*
X387460000Y-203857000D01*
X382638000Y-229216000D02*
X382803000Y-229380000D01*
X382803000Y-229380000D02*
X382803000Y-256814000D01*
X386300000Y-200840000D02*
X387460000Y-202000000D01*
D35*
%TO.N,Net-(J0_18-Pin_1)*%
X470200000Y-315701000D02*
X463646000Y-309148000D01*
X470200000Y-317580000D02*
X470200000Y-315701000D01*
X463646000Y-309148000D02*
X461915000Y-309148000D01*
X459302000Y-311761000D02*
X459302000Y-312100000D01*
X471880000Y-315900000D02*
X470200000Y-317580000D01*
X461915000Y-309148000D02*
X459302000Y-311761000D01*
X459302000Y-312100000D02*
X457350000Y-312100000D01*
X480300000Y-315900000D02*
X471880000Y-315900000D01*
%TO.N,Net-(J0_1-Pin_1)*%
X364000000Y-178400000D02*
X364000000Y-187500000D01*
%TD*%
M02*
