%TF.GenerationSoftware,KiCad,Pcbnew,9.0.9-9.0.9~ubuntu24.04.1*%
%TF.CreationDate,2026-09-06T19:06:42-06:00*%
%TF.ProjectId,HORNO_PCB,484f524e-4f5f-4504-9342-2e6b69636164,rev?*%
%TF.SameCoordinates,Original*%
%TF.FileFunction,Soldermask,Top*%
%TF.FilePolarity,Negative*%
%FSLAX46Y46*%
G04 Gerber Fmt 4.6, Leading zero omitted, Abs format (unit mm)*
G04 Created by KiCad (PCBNEW 9.0.9-9.0.9~ubuntu24.04.1) date 2026-09-06 19:06:42*
%MOMM*%
%LPD*%
G01*
G04 APERTURE LIST*
G04 Aperture macros list*
%AMRoundRect*
0 Rectangle with rounded corners*
0 $1 Rounding radius*
0 $2 $3 $4 $5 $6 $7 $8 $9 X,Y pos of 4 corners*
0 Add a 4 corners polygon primitive as box body*
4,1,4,$2,$3,$4,$5,$6,$7,$8,$9,$2,$3,0*
0 Add four circle primitives for the rounded corners*
1,1,$1+$1,$2,$3*
1,1,$1+$1,$4,$5*
1,1,$1+$1,$6,$7*
1,1,$1+$1,$8,$9*
0 Add four rect primitives between the rounded corners*
20,1,$1+$1,$2,$3,$4,$5,0*
20,1,$1+$1,$4,$5,$6,$7,0*
20,1,$1+$1,$6,$7,$8,$9,0*
20,1,$1+$1,$8,$9,$2,$3,0*%
G04 Aperture macros list end*
%ADD10R,1.800000X1.800000*%
%ADD11C,1.800000*%
%ADD12RoundRect,0.102000X-0.565000X-0.565000X0.565000X-0.565000X0.565000X0.565000X-0.565000X0.565000X0*%
%ADD13C,1.334000*%
%ADD14RoundRect,0.250000X1.050000X-1.050000X1.050000X1.050000X-1.050000X1.050000X-1.050000X-1.050000X0*%
%ADD15C,2.600000*%
%ADD16C,1.600000*%
%ADD17C,2.400000*%
%ADD18R,2.000000X2.000000*%
%ADD19C,2.000000*%
%ADD20RoundRect,0.250000X1.050000X1.050000X-1.050000X1.050000X-1.050000X-1.050000X1.050000X-1.050000X0*%
%ADD21R,1.700000X1.700000*%
%ADD22C,1.700000*%
%ADD23C,7.000000*%
%ADD24RoundRect,0.250000X-0.550000X-0.550000X0.550000X-0.550000X0.550000X0.550000X-0.550000X0.550000X0*%
%ADD25R,2.500000X4.500000*%
%ADD26O,2.500000X4.500000*%
%ADD27C,2.700000*%
%ADD28C,3.000000*%
%ADD29RoundRect,0.250000X-0.950000X-0.550000X0.950000X-0.550000X0.950000X0.550000X-0.950000X0.550000X0*%
%ADD30O,2.400000X1.600000*%
%ADD31R,1.300000X1.300000*%
%ADD32C,1.300000*%
G04 APERTURE END LIST*
D10*
%TO.C,D3*%
X356050000Y-220200000D03*
D11*
X353510000Y-220200000D03*
%TD*%
D12*
%TO.C,U18*%
X462900000Y-365120000D03*
D13*
X462900000Y-367660000D03*
X462900000Y-370200000D03*
X462900000Y-372740000D03*
X470840000Y-372740000D03*
X470840000Y-370200000D03*
X470840000Y-367660000D03*
X470840000Y-365120000D03*
%TD*%
D14*
%TO.C,J0_18*%
X480300000Y-318000000D03*
D15*
X480300000Y-313000000D03*
X480300000Y-308000000D03*
%TD*%
D14*
%TO.C,J0_16*%
X429500000Y-249800000D03*
D15*
X429500000Y-244800000D03*
X429500000Y-239800000D03*
%TD*%
D16*
%TO.C,R29*%
X455000000Y-181800000D03*
X444840000Y-181800000D03*
%TD*%
%TO.C,R19*%
X452060000Y-311000000D03*
X441900000Y-311000000D03*
%TD*%
D17*
%TO.C,K2*%
X466600000Y-246800000D03*
X461560000Y-246800000D03*
X471640000Y-246800000D03*
D18*
X446440000Y-246800000D03*
D19*
X450220000Y-246800000D03*
%TD*%
D16*
%TO.C,R23*%
X458100000Y-363220000D03*
X458100000Y-353060000D03*
%TD*%
D12*
%TO.C,U10*%
X343460000Y-267690000D03*
D13*
X343460000Y-270230000D03*
X343460000Y-272770000D03*
X343460000Y-275310000D03*
X351400000Y-275310000D03*
X351400000Y-272770000D03*
X351400000Y-270230000D03*
X351400000Y-267690000D03*
%TD*%
D16*
%TO.C,R37*%
X371300000Y-277200000D03*
X371300000Y-267040000D03*
%TD*%
D10*
%TO.C,D11*%
X466000000Y-219000000D03*
D11*
X463460000Y-219000000D03*
%TD*%
D20*
%TO.C,J0_1*%
X369300000Y-178100000D03*
D15*
X364300000Y-178100000D03*
X359300000Y-178100000D03*
%TD*%
D21*
%TO.C,J27*%
X411700000Y-305300000D03*
D22*
X411700000Y-302760000D03*
X411700000Y-300220000D03*
X411700000Y-297680000D03*
X411700000Y-295140000D03*
X411700000Y-292600000D03*
X411700000Y-290060000D03*
X411700000Y-287520000D03*
X411700000Y-284980000D03*
X411700000Y-282440000D03*
X411700000Y-279900000D03*
X411700000Y-277360000D03*
X411700000Y-274820000D03*
X411700000Y-272280000D03*
X411700000Y-269740000D03*
X411700000Y-267200000D03*
X411700000Y-264660000D03*
X411700000Y-262120000D03*
X411700000Y-259580000D03*
X411700000Y-257040000D03*
%TD*%
D23*
%TO.C,MH2*%
X493000000Y-378000000D03*
%TD*%
D16*
%TO.C,R3*%
X370000000Y-219900000D03*
X380160000Y-219900000D03*
%TD*%
D12*
%TO.C,U17*%
X462860000Y-338380000D03*
D13*
X462860000Y-340920000D03*
X462860000Y-343460000D03*
X462860000Y-346000000D03*
X470800000Y-346000000D03*
X470800000Y-343460000D03*
X470800000Y-340920000D03*
X470800000Y-338380000D03*
%TD*%
D16*
%TO.C,C7*%
X376400000Y-192900000D03*
X381400000Y-192900000D03*
%TD*%
D14*
%TO.C,J0_4*%
X480300000Y-276600000D03*
D15*
X480300000Y-271600000D03*
X480300000Y-266600000D03*
%TD*%
D16*
%TO.C,R24*%
X477440000Y-359640000D03*
X467280000Y-359640000D03*
%TD*%
D23*
%TO.C,MH4*%
X308000000Y-174000000D03*
%TD*%
D10*
%TO.C,D10*%
X465270000Y-200400000D03*
D11*
X462730000Y-200400000D03*
%TD*%
D12*
%TO.C,U9*%
X343460000Y-252690000D03*
D13*
X343460000Y-255230000D03*
X343460000Y-257770000D03*
X343460000Y-260310000D03*
X351400000Y-260310000D03*
X351400000Y-257770000D03*
X351400000Y-255230000D03*
X351400000Y-252690000D03*
%TD*%
D16*
%TO.C,R17*%
X455000000Y-238200000D03*
X444840000Y-238200000D03*
%TD*%
D14*
%TO.C,J0_19*%
X429300000Y-283300000D03*
D15*
X429300000Y-278300000D03*
X429300000Y-273300000D03*
%TD*%
D14*
%TO.C,J0_10*%
X480300000Y-182600000D03*
D15*
X480300000Y-177600000D03*
X480300000Y-172600000D03*
%TD*%
D24*
%TO.C,U1*%
X359380000Y-201500000D03*
D16*
X359380000Y-204040000D03*
X367000000Y-204040000D03*
X367000000Y-201500000D03*
%TD*%
D25*
%TO.C,Q7*%
X451700000Y-297000000D03*
D26*
X457150000Y-297000000D03*
X462600000Y-297000000D03*
%TD*%
D19*
%TO.C,Fuente_2*%
X351200000Y-373000000D03*
X369200000Y-373000000D03*
X369200000Y-333000000D03*
X351200000Y-333000000D03*
%TD*%
D23*
%TO.C,MH1*%
X308000000Y-378000000D03*
%TD*%
D14*
%TO.C,J7*%
X326000000Y-301000000D03*
D15*
X326000000Y-296000000D03*
X326000000Y-291000000D03*
%TD*%
D10*
%TO.C,D4*%
X356050000Y-228900000D03*
D11*
X353510000Y-228900000D03*
%TD*%
D16*
%TO.C,C9*%
X456040000Y-371540000D03*
X456040000Y-366540000D03*
%TD*%
%TO.C,R48*%
X427600000Y-202700000D03*
X417440000Y-202700000D03*
%TD*%
%TO.C,R13*%
X455000000Y-275400000D03*
X444840000Y-275400000D03*
%TD*%
%TO.C,R16*%
X455000000Y-256400000D03*
X444840000Y-256400000D03*
%TD*%
D27*
%TO.C,F1*%
X359350000Y-301000000D03*
D28*
X370600000Y-301000000D03*
X348100000Y-301000000D03*
%TD*%
D14*
%TO.C,J0_9*%
X480300000Y-201400000D03*
D15*
X480300000Y-196400000D03*
X480300000Y-191400000D03*
%TD*%
D16*
%TO.C,R28*%
X335000000Y-203000000D03*
X350240000Y-203000000D03*
%TD*%
D29*
%TO.C,U25*%
X432100000Y-207080000D03*
D30*
X432100000Y-209620000D03*
X432100000Y-212160000D03*
X432100000Y-214700000D03*
X432100000Y-217240000D03*
X432100000Y-219780000D03*
X432100000Y-222320000D03*
X432100000Y-224860000D03*
X432100000Y-227400000D03*
X439720000Y-227400000D03*
X439720000Y-224860000D03*
X439720000Y-222320000D03*
X439720000Y-219780000D03*
X439720000Y-217240000D03*
X439720000Y-214700000D03*
X439720000Y-212160000D03*
X439720000Y-209620000D03*
X439720000Y-207080000D03*
%TD*%
D16*
%TO.C,R14*%
X365000000Y-253500000D03*
X354840000Y-253500000D03*
%TD*%
%TO.C,R12*%
X335000000Y-228900000D03*
X350240000Y-228900000D03*
%TD*%
%TO.C,R25*%
X452100000Y-290000000D03*
X441940000Y-290000000D03*
%TD*%
%TO.C,R18*%
X455000000Y-219000000D03*
X444840000Y-219000000D03*
%TD*%
D14*
%TO.C,J0_8*%
X480300000Y-220200000D03*
D15*
X480300000Y-215200000D03*
X480300000Y-210200000D03*
%TD*%
D16*
%TO.C,R26*%
X424300000Y-301500000D03*
X424300000Y-291340000D03*
%TD*%
D14*
%TO.C,J0_12*%
X326000000Y-228900000D03*
D15*
X326000000Y-223900000D03*
X326000000Y-218900000D03*
%TD*%
D17*
%TO.C,R6*%
X470200000Y-285500000D03*
X470200000Y-300740000D03*
%TD*%
D31*
%TO.C,Q1*%
X363300000Y-260500000D03*
D32*
X364570000Y-259230000D03*
X365840000Y-260500000D03*
%TD*%
D24*
%TO.C,U15*%
X430480000Y-313000000D03*
D16*
X430480000Y-315540000D03*
X430480000Y-318080000D03*
X430480000Y-320620000D03*
X438100000Y-320620000D03*
X438100000Y-318080000D03*
X438100000Y-315540000D03*
X438100000Y-313000000D03*
%TD*%
%TO.C,R46*%
X427600000Y-208800000D03*
X417440000Y-208800000D03*
%TD*%
D17*
%TO.C,K8*%
X466600000Y-209200000D03*
X461560000Y-209200000D03*
X471640000Y-209200000D03*
D18*
X446440000Y-209200000D03*
D19*
X450220000Y-209200000D03*
%TD*%
D16*
%TO.C,R27*%
X455000000Y-200300000D03*
X444840000Y-200300000D03*
%TD*%
D20*
%TO.C,J0_3*%
X349100000Y-178100000D03*
D15*
X344100000Y-178100000D03*
X339100000Y-178100000D03*
%TD*%
D21*
%TO.C,J25*%
X411700000Y-246600000D03*
D22*
X411700000Y-244060000D03*
X411700000Y-241520000D03*
X411700000Y-238980000D03*
X411700000Y-236440000D03*
X411700000Y-233900000D03*
X411700000Y-231360000D03*
X411700000Y-228820000D03*
X411700000Y-226280000D03*
X411700000Y-223740000D03*
X411700000Y-221200000D03*
X411700000Y-218660000D03*
X411700000Y-216120000D03*
X411700000Y-213580000D03*
X411700000Y-211040000D03*
X411700000Y-208500000D03*
X411700000Y-205960000D03*
X411700000Y-203420000D03*
X411700000Y-200880000D03*
X411700000Y-198340000D03*
%TD*%
D23*
%TO.C,MH3*%
X493000000Y-174000000D03*
%TD*%
D16*
%TO.C,R44*%
X427600000Y-214900000D03*
X417440000Y-214900000D03*
%TD*%
D28*
%TO.C,J1*%
X364000000Y-187500000D03*
%TD*%
D14*
%TO.C,J0_5*%
X326000000Y-267440000D03*
D15*
X326000000Y-262440000D03*
X326000000Y-257440000D03*
%TD*%
D14*
%TO.C,J0_6*%
X480300000Y-257800000D03*
D15*
X480300000Y-252800000D03*
X480300000Y-247800000D03*
%TD*%
D21*
%TO.C,J24*%
X386300000Y-198300000D03*
D22*
X386300000Y-200840000D03*
X386300000Y-203380000D03*
X386300000Y-205920000D03*
X386300000Y-208460000D03*
X386300000Y-211000000D03*
X386300000Y-213540000D03*
X386300000Y-216080000D03*
X386300000Y-218620000D03*
X386300000Y-221160000D03*
X386300000Y-223700000D03*
X386300000Y-226240000D03*
X386300000Y-228780000D03*
X386300000Y-231320000D03*
X386300000Y-233860000D03*
X386300000Y-236400000D03*
X386300000Y-238940000D03*
X386300000Y-241480000D03*
X386300000Y-244020000D03*
X386300000Y-246560000D03*
%TD*%
D16*
%TO.C,C10*%
X421100000Y-192900000D03*
X416100000Y-192900000D03*
%TD*%
%TO.C,R11*%
X427600000Y-221000000D03*
X417440000Y-221000000D03*
%TD*%
%TO.C,R10*%
X427600000Y-227100000D03*
X417440000Y-227100000D03*
%TD*%
D25*
%TO.C,Q6*%
X451900000Y-318000000D03*
D26*
X457350000Y-318000000D03*
X462800000Y-318000000D03*
%TD*%
D14*
%TO.C,J0_15*%
X326000000Y-245700000D03*
D15*
X326000000Y-240700000D03*
X326000000Y-235700000D03*
%TD*%
D16*
%TO.C,R1*%
X370000000Y-202900000D03*
X380160000Y-202900000D03*
%TD*%
D17*
%TO.C,R5*%
X470200000Y-306500000D03*
X470200000Y-321740000D03*
%TD*%
D10*
%TO.C,D12*%
X466000000Y-238000000D03*
D11*
X463460000Y-238000000D03*
%TD*%
D24*
%TO.C,U2*%
X359380000Y-210100000D03*
D16*
X359380000Y-212640000D03*
X367000000Y-212640000D03*
X367000000Y-210100000D03*
%TD*%
%TO.C,C5*%
X338000000Y-268500000D03*
X338000000Y-273500000D03*
%TD*%
D10*
%TO.C,D1*%
X356050000Y-203000000D03*
D11*
X353510000Y-203000000D03*
%TD*%
D14*
%TO.C,J0_2*%
X326000000Y-195300000D03*
D15*
X326000000Y-190300000D03*
X326000000Y-185300000D03*
%TD*%
D14*
%TO.C,J0_13*%
X480300000Y-352000000D03*
D15*
X480300000Y-347000000D03*
X480300000Y-342000000D03*
%TD*%
D16*
%TO.C,R22*%
X477440000Y-333000000D03*
X467280000Y-333000000D03*
%TD*%
D24*
%TO.C,U4*%
X359380000Y-227400000D03*
D16*
X359380000Y-229940000D03*
X367000000Y-229940000D03*
X367000000Y-227400000D03*
%TD*%
D14*
%TO.C,J0_7*%
X480300000Y-239000000D03*
D15*
X480300000Y-234000000D03*
X480300000Y-229000000D03*
%TD*%
D14*
%TO.C,J0_14*%
X480300000Y-297000000D03*
D15*
X480300000Y-292000000D03*
X480300000Y-287000000D03*
%TD*%
D16*
%TO.C,R21*%
X458100000Y-336480000D03*
X458100000Y-326320000D03*
%TD*%
%TO.C,R38*%
X371300000Y-251880000D03*
X371300000Y-262040000D03*
%TD*%
D10*
%TO.C,D2*%
X356050000Y-211600000D03*
D11*
X353510000Y-211600000D03*
%TD*%
D14*
%TO.C,J0_17*%
X429500000Y-266600000D03*
D15*
X429500000Y-261600000D03*
X429500000Y-256600000D03*
%TD*%
D21*
%TO.C,J26*%
X386300000Y-257200000D03*
D22*
X386300000Y-259740000D03*
X386300000Y-262280000D03*
X386300000Y-264820000D03*
X386300000Y-267360000D03*
X386300000Y-269900000D03*
X386300000Y-272440000D03*
X386300000Y-274980000D03*
X386300000Y-277520000D03*
X386300000Y-280060000D03*
X386300000Y-282600000D03*
X386300000Y-285140000D03*
X386300000Y-287680000D03*
X386300000Y-290220000D03*
X386300000Y-292760000D03*
X386300000Y-295300000D03*
X386300000Y-297840000D03*
X386300000Y-300380000D03*
X386300000Y-302920000D03*
X386300000Y-305460000D03*
%TD*%
D16*
%TO.C,R2*%
X370000000Y-211300000D03*
X380160000Y-211300000D03*
%TD*%
%TO.C,C6*%
X338000000Y-253500000D03*
X338000000Y-258500000D03*
%TD*%
D19*
%TO.C,Fuente_1*%
X314700000Y-360000000D03*
X332700000Y-360000000D03*
X332700000Y-320000000D03*
X314700000Y-320000000D03*
%TD*%
D10*
%TO.C,D13*%
X466000000Y-256700000D03*
D11*
X463460000Y-256700000D03*
%TD*%
D16*
%TO.C,C8*%
X455700000Y-344800000D03*
X455700000Y-339800000D03*
%TD*%
%TO.C,R8*%
X335000000Y-220200000D03*
X350240000Y-220200000D03*
%TD*%
D17*
%TO.C,K7*%
X466600000Y-190400000D03*
X461560000Y-190400000D03*
X471640000Y-190400000D03*
D18*
X446440000Y-190400000D03*
D19*
X450220000Y-190400000D03*
%TD*%
D10*
%TO.C,D9*%
X465400000Y-181900000D03*
D11*
X462860000Y-181900000D03*
%TD*%
D19*
%TO.C,Fuente_3*%
X388600000Y-360000000D03*
X406600000Y-360000000D03*
X406600000Y-320000000D03*
X388600000Y-320000000D03*
%TD*%
D31*
%TO.C,Q2*%
X363300000Y-275500000D03*
D32*
X364570000Y-274230000D03*
X365840000Y-275500000D03*
%TD*%
D16*
%TO.C,R7*%
X335000000Y-211600000D03*
X350240000Y-211600000D03*
%TD*%
D24*
%TO.C,U3*%
X359380000Y-218700000D03*
D16*
X359380000Y-221240000D03*
X367000000Y-221240000D03*
X367000000Y-218700000D03*
%TD*%
%TO.C,R4*%
X370000000Y-228600000D03*
X380160000Y-228600000D03*
%TD*%
%TO.C,R9*%
X427600000Y-233200000D03*
X417440000Y-233200000D03*
%TD*%
D24*
%TO.C,U19*%
X429980000Y-292000000D03*
D16*
X429980000Y-294540000D03*
X429980000Y-297080000D03*
X429980000Y-299620000D03*
X437600000Y-299620000D03*
X437600000Y-297080000D03*
X437600000Y-294540000D03*
X437600000Y-292000000D03*
%TD*%
%TO.C,R15*%
X365000000Y-268500000D03*
X354840000Y-268500000D03*
%TD*%
D17*
%TO.C,K9*%
X466600000Y-228000000D03*
X461560000Y-228000000D03*
X471640000Y-228000000D03*
D18*
X446440000Y-228000000D03*
D19*
X450220000Y-228000000D03*
%TD*%
%TO.C,Fuente_4*%
X427500000Y-373000000D03*
X445500000Y-373000000D03*
X445500000Y-333000000D03*
X427500000Y-333000000D03*
%TD*%
D10*
%TO.C,D14*%
X466000000Y-275500000D03*
D11*
X463460000Y-275500000D03*
%TD*%
D17*
%TO.C,K1*%
X466600000Y-265600000D03*
X461560000Y-265600000D03*
X471640000Y-265600000D03*
D18*
X446440000Y-265600000D03*
D19*
X450220000Y-265600000D03*
%TD*%
D14*
%TO.C,J0_11*%
X326000000Y-212100000D03*
D15*
X326000000Y-207100000D03*
X326000000Y-202100000D03*
%TD*%
D16*
%TO.C,R20*%
X424300000Y-322500000D03*
X424300000Y-312340000D03*
%TD*%
M02*
